<?xml version="1.0" encoding="utf-8"?>
<!-- Generator: Adobe Illustrator 13.0.2, SVG Export Plug-In . SVG Version: 6.00 Build 14948)  -->
<!DOCTYPE svg PUBLIC "-//W3C//DTD SVG 1.1//EN" "http://www.w3.org/Graphics/SVG/1.1/DTD/svg11.dtd">
<svg version="1.1"
	 id="svg2" inkscape:output_extension="org.inkscape.output.svg.inkscape" xmlns:svg="http://www.w3.org/2000/svg" inkscape:version="0.46" xmlns:dc="http://purl.org/dc/elements/1.1/" sodipodi:version="0.32" xmlns:sodipodi="http://sodipodi.sourceforge.net/DTD/sodipodi-0.dtd" xmlns:inkscape="http://www.inkscape.org/namespaces/inkscape" xmlns:rdf="http://www.w3.org/1999/02/22-rdf-syntax-ns#" sodipodi:docname="treequel-red.svg" xmlns:cc="http://creativecommons.org/ns#" inkscape:export-xdpi="10.18" inkscape:export-ydpi="10.18" inkscape:export-filename="/Users/mgranger/source/ruby/Treequel/docs/treequel-red-small.png"
	 xmlns="http://www.w3.org/2000/svg" xmlns:xlink="http://www.w3.org/1999/xlink" x="0px" y="0px" width="318px" height="318px"
	 viewBox="223.214 354.681 318 318" enable-background="new 223.214 354.681 318 318" xml:space="preserve">
<g id="backdrop" inkscape:groupmode="layer" inkscape:label="Backdrop">
	
		<radialGradient id="gradient_backdrop_1_" cx="362.7573" cy="482.7627" r="155.6951" gradientTransform="matrix(0.6721 -1.4039 -1.3869 -0.664 867.6377 1410.5867)" gradientUnits="userSpaceOnUse">
		<stop  offset="0" style="stop-color:#F6F6F6"/>
		<stop  offset="0.6964" style="stop-color:#CFCFCF"/>
		<stop  offset="1" style="stop-color:#919191"/>
	</radialGradient>
	
		<rect id="gradient_backdrop" x="226.013" y="358.015" opacity="0.7368" fill="url(#gradient_backdrop_1_)" enable-background="new    " width="311.39" height="311.391"/>
</g>
<g id="frame" inkscape:groupmode="layer" inkscape:label="Foredrop">
	
		<rect id="rect4974" x="226.013" y="358.015" opacity="0.7368" fill="none" stroke="#484860" stroke-width="7" stroke-linejoin="round" enable-background="new    " width="311.39" height="311.391"/>
</g>
<g id="tree_1_" inkscape:groupmode="layer" inkscape:label="Tree">
	<path id="tree_shape" inkscape:label="#treepath" fill="#6A1005" stroke="#484860" stroke-width="0.75" d="M433.579,667.796
		c-0.131-0.885-0.629-2.822-1.109-4.305c-0.867-2.676-0.875-2.729-0.973-6.434c-0.146-5.574,0.309-8.816,2.545-18.156
		c2.09-8.738,2.471-11.256,2.35-15.598c-0.074-2.697-0.096-2.812-0.879-4.531c-1.76-3.861-1.982-4.766-1.986-8.055
		c-0.002-1.641-0.102-3.15-0.219-3.371c-0.123-0.23-0.434-0.402-0.727-0.402c-0.605,0-0.629-0.266-0.111-1.24l0.385-0.721
		l-0.59-0.359c-0.873-0.529-1.23-1.41-1.666-4.09c-0.215-1.324-0.391-2.424-0.393-2.443c-0.002-0.018-0.41-0.26-0.904-0.537
		c-1.744-0.975-4.014-1.791-7.607-2.74c-4.594-1.213-7.008-2.021-8.717-2.914l-1.348-0.705l1.141-0.01
		c2.547-0.02,6.223,0.781,12.504,2.729c2.254,0.699,4.133,1.232,4.176,1.186c0.111-0.125-0.441-4.959-0.828-7.244
		c-0.834-4.93-2.389-8.549-4.637-10.797c-1.473-1.473-3.375-2.562-4.896-2.805c-0.73-0.117-1.125,0.025-3.621,1.301
		c-7.654,3.912-13.762,8.66-23.447,18.229c-3.004,2.967-5.436,5.199-5.943,5.453c-4.371,2.193-11.606,4.17-19.062,5.205
		c-4.449,0.617-4.368,0.609-8.863,0.943c-11.079,0.826-26.055,0.537-42.54-0.824l-3.676-0.303l-4.313-2.162
		c-2.373-1.188-5.154-2.645-6.181-3.238c-5.405-3.123-8.815-6.531-10.704-10.697c-0.345-0.76-0.598-1.467-0.563-1.572
		c0.157-0.471,1.77,1.314,3.362,3.723c0.956,1.445,2.192,3.062,2.747,3.596c4.763,4.564,13.503,7.891,24.25,9.229
		c2.042,0.254,4.478,0.363,8.197,0.371l5.292,0.012l4.177-0.879c4.362-0.918,5.688-1.062,14.707-1.611
		c12.45-0.758,18.848-2.227,23.716-5.443c0.604-0.398,1.046-0.779,0.981-0.844c-0.064-0.062-1.674-0.381-3.576-0.705
		c-6.464-1.098-13.644-2.898-21.433-5.375c-9.99-3.174-12.094-3.73-21.839-5.773c-9.952-2.088-13.926-3.198-18.319-5.123
		c-4.703-2.059-7.867-4.295-12.137-8.574c-9.624-9.646-15.967-18.971-18.359-26.986c-0.348-1.167,2.525,2.977,7.452,10.747
		c7.311,11.53,12.393,17.1,19.113,20.945c3.558,2.036,6.805,2.843,14.872,3.693c8.4,0.886,10.713,1.368,22.889,4.763
		c11.666,3.252,17.397,4.566,22.54,5.172c6.637,0.781,9.861,0.623,14.396-0.709c3.418-1.002,5.564-1.236,6.932-0.76l0.912,0.32
		l3.342-2.982c6.299-5.623,10.543-8.943,14.203-11.115c1.227-0.728,1.449-0.935,1.143-1.053c-0.211-0.082-0.85-0.316-1.418-0.521
		c-1.326-0.478-3.984-2.254-6.748-4.51c-2.475-2.02-4.334-3.083-6.248-3.573c-2.244-0.575-2.812-0.448-11.598,2.592
		c-4.021,1.392-6.153,1.763-9.393,1.634c-1.822-0.073-2.939-0.23-3.956-0.558c-1.312-0.423-1.454-0.432-1.919-0.126
		c-0.5,0.326-0.692,0.941-0.295,0.941c0.312,0,0.25,0.344-0.132,0.725c-0.408,0.408-0.521,0.295-0.992-0.984
		c-0.412-1.118-0.949-1.291-1.81-0.58l-0.49,0.403l0.68,1.308c0.375,0.72,0.678,1.425,0.675,1.567
		c-0.01,0.425-0.629,0.296-1.304-0.272c-0.933-0.784-2.824-1.684-4.658-2.215c-1.443-0.419-2.056-0.469-5.665-0.457
		c-4.301,0.013-3.881-0.038-14.111,1.723c-5.365,0.923-10.202,1.345-12.762,1.113c-1.745-0.158-2.035-0.381-1.089-0.834
		c0.729-0.35,0.761-0.728,0.039-0.453c-0.98,0.373-2.156,0.223-3.687-0.471c-1.179-0.535-1.747-0.671-2.738-0.657
		c-1.236,0.017-1.257,0.008-1.764-0.796c-0.616-0.977-2.481-2.42-6.116-4.734c-5.256-3.346-8.148-5.754-9.73-8.104
		c-0.406-0.602-0.701-1.131-0.656-1.176c0.157-0.157,3.168,2.014,6.962,5.021c7.156,5.673,10.891,7.755,16.082,8.967
		c2.47,0.577,9.046,0.537,12.347-0.074c1.312-0.244,4.177-0.774,6.366-1.18c2.188-0.404,5.06-0.848,6.381-0.986
		c1.321-0.137,2.401-0.316,2.401-0.398s-0.426-0.715-0.946-1.407c-2.014-2.679-5.205-5.093-10.467-7.919
		c-7.606-4.086-9.684-5.592-16.601-12.031c-1.997-1.86-4.622-4.232-5.832-5.271c-5.455-4.686-10.96-7.809-14.815-8.406
		c-4.905-0.76-8.604-2.048-17.742-6.179c-9.357-4.231-13.552-5.774-18.58-6.835c-2.385-0.503-3.147-0.569-6.736-0.579
		c-4.616-0.013-6.46,0.25-10.228,1.461c-4.189,1.347-8.237,3.599-12.135,6.752c-0.882,0.714-3.043,2.703-4.803,4.42l-3.199,3.121
		l1.063-1.556c7.366-10.78,19.889-16.675,33.132-15.599c4.828,0.393,8.049,1.333,16.816,4.906c6.298,2.567,8.898,3.469,16.403,5.686
		c10.992,3.247,13.833,4.344,18.352,7.084c4.69,2.846,8.016,5.36,17.453,13.195c11.319,9.396,16.845,13.184,22.079,15.133
		c10.524,3.919,22.96,3.668,31.45-0.635c0.564-0.285,1.025-0.596,1.025-0.689c0-0.206-3.988-4.094-6.433-6.271
		c-10.082-8.979-22.458-17.148-34.303-22.646c-3.52-1.633-10.426-4.453-12.128-4.953c-2.583-0.758,1.224-0.181,5.033,0.763
		c8.586,2.127,17.723,6.463,27.184,12.901c3.924,2.67,8.69,6.252,16.465,12.372c5.287,4.161,6.59,5.095,6.951,4.983
		c1.512-0.461,3.148-1.295,5.242-2.672c3.238-2.13,4.734-2.862,6.768-3.312l0.564-0.124l-0.596-1.606
		c-1.918-5.181-3.641-8.356-9.256-17.065c-4.061-6.298-5.078-8.049-7.271-12.51c-1.773-3.603-1.84-3.703-3.23-4.827
		c-1.43-1.155-2.008-1.956-2.241-3.103c-0.115-0.568-0.489-0.81-4.271-2.76c-14.726-7.593-28.563-16.273-42.407-26.602
		c-4.079-3.043-10.256-7.843-11.693-9.086c-0.289-0.25-0.253-0.048,0.179,1.015c0.634,1.559,2.048,7.054,2.268,8.813l0.153,1.225
		l-0.705-0.537c-1.029-0.783-1.976-2.485-2.757-4.953l-0.688-2.174l-1.327-0.298c-1.97-0.441-6.59-0.423-8.279,0.034
		c-1.975,0.534-4.694,1.906-8.207,4.142c-6.583,4.189-10.819,5.758-15.553,5.759c-3.101,0.001-4.512,0.482-11.02,3.759
		c-2.866,1.443-5.994,2.926-6.952,3.296c-3.58,1.383-10.961,3.001-19.795,4.338c-5.925,0.897-18.675,2.464-21.425,2.634
		l-2.334,0.144v-1.067v-1.067h1.308c3.433,0,11.23-0.846,16.227-1.762c9.316-1.707,19.48-5.019,28.69-9.349
		c1.399-0.658,2.52-1.222,2.488-1.252c-0.031-0.031-1.083,0.165-2.337,0.436c-8.337,1.797-17.471,2.158-23.755,0.94
		c-5.068-0.982-8.941-2.983-11.345-5.861c-0.716-0.857-2.146-3.464-2.146-3.914c0-0.125,0.49,0.188,1.089,0.697
		c1.525,1.295,4.44,3.154,6.275,4.002c13.4,6.192,30.909,3.188,54.758-9.396c3.301-1.742,5.356-2.88,13.673-7.576l1.819-1.027
		l-0.574-1.033c-0.316-0.568-1.534-2.312-2.707-3.876c-2.159-2.877-3.251-4.76-3.499-6.03c-0.125-0.639-0.103-0.68,0.258-0.486
		c0.812,0.438,2.5,2.308,4.44,4.919c1.102,1.484,2.585,3.235,3.296,3.891c1.547,1.427,2.089,1.509,3.594,0.544
		c0.664-0.427,1.294-0.657,1.833-0.671c0.452-0.012,0.822-0.049,0.822-0.083c0-0.417-1.467-2.749-2.307-3.668
		c-2.165-2.369-3.911-3.278-10.801-5.629c-10.096-3.443-15.034-6.452-30.434-18.54c-7.336-5.759-11.702-8.991-13.834-10.244
		c-0.799-0.469-3.042-1.57-4.983-2.446c-4.842-2.185-6.36-2.962-8.331-4.265c-3.399-2.248-5.09-5.012-5.036-8.235
		c0.028-1.667,0.275-1.732,0.769-0.202c0.834,2.59,2.269,4.391,5.329,6.688c2.957,2.221,6.806,4.666,13.083,8.313
		c15.502,9.007,19.538,11.71,24.449,16.378l2.32,2.205l3.112,1.177c1.712,0.647,5.26,1.936,7.885,2.864
		c10.347,3.657,14.7,5.724,19.402,9.208c1.769,1.312,3.819,2.691,4.555,3.067c1.202,0.613,1.511,0.682,3.009,0.666
		c1.494-0.016,2.129-0.173,6.036-1.488c2.402-0.808,4.97-1.593,5.707-1.745c1.024-0.211,3.453-0.262,10.314-0.216l8.975,0.061
		l-0.002-0.891c-0.001-0.49-0.313-2.193-0.694-3.786l-0.692-2.896l-1.225-0.681c-1.606-0.893-4.296-1.87-6.621-2.404
		c-1.602-0.368-2.65-0.436-7.367-0.473c-3.024-0.024-5.613-0.055-5.753-0.068c-0.463-0.045-0.849-1.157-0.999-2.879l-0.148-1.701
		l-1.164-0.657c-0.64-0.361-2.56-1.59-4.266-2.731c-3.416-2.285-5.268-3.243-6.606-3.417c-1.236-0.161-2.868-1.677-10.227-9.503
		c-9.254-9.843-13.638-13.718-17.838-15.772c-2.498-1.221-4.092-1.725-9.474-2.994c-4.539-1.071-7.367-2.019-9.898-3.319
		c-3.809-1.957-5.574-3.823-9.719-10.277c-2.745-4.273-4.849-7.082-10.027-13.384c-4.656-5.668-7.329-9.078-9.053-11.551
		c-1.49-2.137-3.81-5.871-3.81-6.131c0-0.09,0.537-0.16,1.193-0.156l1.193,0.008l2.179,2.945c4.458,6.027,8.434,10.4,12.032,13.235
		c1.808,1.423,1.84,1.467,7.368,9.95c5.628,8.636,9.482,12.096,15.669,14.065c2.699,0.86,8.065,1.55,9.414,1.212l0.518-0.13
		l-0.653-1.608c-0.819-2.017-4.157-8.713-7.318-14.681c-4.858-9.171-7.049-14.32-8.301-19.505c-0.415-1.719-0.956-5.292-0.801-5.292
		c0.024,0,0.603,0.864,1.287,1.919c2.465,3.805,5.14,8.738,10.213,18.831c7.329,14.583,9.738,18.784,14.082,24.565
		c5.01,6.667,8.44,9.429,18.243,14.689c6.025,3.233,8.321,4.566,10.888,6.319l2.23,1.523l-0.001-1.085
		c-0.002-1.607-0.526-4.775-1.142-6.896c-1.01-3.479-3.029-7.462-6.048-11.932c-1.938-2.868-3.863-6.101-5.073-8.517
		c-1.168-2.333-1.826-4.136-4.229-11.595c-2.131-6.615-3.313-8.992-10.217-20.552l-4.404-7.374l1.479-0.062
		c0.813-0.034,1.551,0.013,1.639,0.104c0.089,0.091,1.253,1.986,2.588,4.212c3.319,5.535,5.125,8.209,7.357,10.895
		c3.302,3.971,3.7,4.861,6.356,14.209c3.216,11.319,4.665,14.345,10.133,21.171c5.996,7.485,7.223,10.513,7.256,17.914l0.018,3.907
		l1.242,0.936c2.907,2.189,8.084,4.206,13.468,5.244c3.068,0.592,2.956,0.613,3.322-0.62c1.35-4.544,0.531-11.771-1.696-14.97
		l-0.767-1.102l-0.078-6.433c-0.043-3.538,0.025-10.214,0.152-14.837c0.445-16.26-0.464-23.041-4.035-30.088
		c-0.607-1.199-1.382-2.879-1.722-3.735c-0.34-0.856-1.141-2.716-1.779-4.134c-0.639-1.418-1.161-2.608-1.161-2.646
		s1.097-0.067,2.438-0.067l2.438,0.001l2.594,4.823l2.594,4.822l0.267-4.357c0.146-2.396,0.312-4.567,0.367-4.824
		c0.096-0.444,0.197-0.467,2.042-0.467h1.942l0.151,4.022c0.2,5.344,0.07,5.695-1.461,3.938c-1.125-1.292-1.488-1.143-0.805,0.33
		c0.675,1.455,0.606,2.094-0.269,2.5c-0.837,0.389-0.843,0.629-0.035,1.549c0.744,0.848,0.967,0.903,1.191,0.294
		c0.131-0.354,0.213-0.211,0.428,0.746c0.355,1.586,2.062,4.949,3.453,6.802c1.448,1.929,4.661,5.168,7.045,7.105
		c3.232,2.625,6.825,5.096,6.988,4.806c0.192-0.345,1.078-4.236,1.611-7.088c1.174-6.268,1.809-14.774,1.578-21.114l-0.142-3.891
		h2.733h2.734l-0.133,3.164c-0.072,1.741-0.225,6.153-0.336,9.805c-0.311,10.152-0.736,14.801-1.877,20.531
		c-0.562,2.816-0.588,3.118-0.281,3.289c1.164,0.651,4.656,3.524,6.396,5.26c4.906,4.897,7.656,9.1,14.057,21.48
		c1.928,3.727,3.73,7.173,4.006,7.658l0.5,0.881l0.162-1.018c0.285-1.792,0.213-8.578-0.104-9.836
		c-0.377-1.494-0.924-2.561-1.561-3.038c-0.494-0.37-0.506-0.43-0.275-1.423c0.152-0.662,0.234-3.217,0.229-7.055
		c-0.008-5.051-0.098-6.835-0.559-11.102c-1.387-12.798-1.59-14.852-1.803-18.26c-0.125-1.998-0.457-6.875-0.736-10.839
		c-0.277-3.964-0.506-7.723-0.506-8.353v-1.145h2.977h2.977l0.131,3.476c0.271,7.182,1.984,15.617,4.48,22.053l0.818,2.108
		l-0.328,1.485c-0.443,2.014-0.432,6.794,0.023,9.993c0.195,1.37,0.627,4.124,0.959,6.122c0.701,4.211,1.145,7.59,1.361,10.375
		l0.152,1.971l0.682-1.453c0.811-1.727,1.604-4.147,2.105-6.433c0.279-1.271,0.363-2.585,0.357-5.603
		c-0.006-3.785-0.184-5.414-1.045-9.594c-0.133-0.643-0.098-0.688,0.822-1.083c1.717-0.736,3.494-2.114,6.664-5.169
		c3.615-3.484,5.27-4.764,9.186-7.109c5.092-3.049,7.201-4.792,8.162-6.744c1.143-2.324,0.385-5.919-2.402-11.4l-1.525-2.997h1.746
		c0.961,0,1.748,0.07,1.75,0.155c0.002,0.086,0.197,0.389,0.432,0.675l0.428,0.519l-0.115-0.674l-0.115-0.674h2.357
		c2.275,0,2.363,0.017,2.473,0.467c0.062,0.257,0.402,2.288,0.756,4.513c0.926,5.842,0.811,5.582,1.645,3.726
		c0.781-1.739,2.121-5.707,2.537-7.513l0.277-1.193h4.637h4.639l-0.139,0.674c-1.465,7.059-3.842,17.081-7.148,30.141
		c-1.475,5.82-3.709,14.645-4.967,19.609c-3.34,13.18-6.152,25.112-5.842,24.77c0.656-0.717,9.584-16.19,12.381-21.455
		c3.506-6.601,6.877-14.379,7.314-16.878c0.162-0.923,0.189-0.934,1.688-0.658c0.672,0.124,0.764,0.075,1.234-0.656
		c0.279-0.435,1.258-1.957,2.172-3.384c5.232-8.154,10.275-18.324,14.049-28.325l1.408-3.735l3.969-0.056l3.967-0.057l-0.139,0.472
		c-0.361,1.212-6.719,16.975-8.561,21.222c-4.301,9.918-8.41,18.356-11.848,24.324c-0.936,1.623-1.836,3.337-2.004,3.809
		c-0.189,0.541-0.389,2.512-0.535,5.339c-0.361,6.961,0.164,17.206,1.383,26.973c0.289,2.315,0.602,4.414,0.695,4.665
		c0.201,0.543,0.379,0.281,5.104-7.529c3.529-5.833,4.744-7.723,5.227-8.12c0.309-0.253,0.324-0.22,0.178,0.341
		c-0.092,0.343-0.15,0.716-0.135,0.83c0.018,0.114,0.086,1.468,0.152,3.009c0.348,8.099-3.221,14.846-9.061,17.137l-1.469,0.577
		l0.113,0.741c0.062,0.407,0.256,3.402,0.43,6.654c0.893,16.731,1.441,22.36,2.83,29.049c0.787,3.791,2.344,8.536,3.721,11.341
		c1.225,2.494,1.146,2.488,2.57,0.202c3.529-5.666,5.717-13.325,7.262-25.444c1.92-15.052,2.5-24.554,2.338-38.35
		c-0.113-9.599-0.371-14.431-1.229-22.969c-0.367-3.66-0.459-5.902-0.463-11.309c-0.006-8.588,0.383-13.081,2.463-28.448
		c0.752-5.548,1.777-13.858,1.777-14.402c0-0.058,1.35-0.104,2.998-0.104h3l-0.088,0.985c-0.211,2.349-0.275,3.995-0.156,3.995
		c0.07,0,0.303-0.16,0.52-0.355c0.338-0.306,0.418-0.313,0.584-0.052c0.105,0.167,0.191,0.664,0.193,1.105
		c0.004,0.842-0.059,0.866-1.109,0.435c-0.352-0.145-0.373-0.083-0.244,0.687c0.172,1.013-0.043,1.476-1.186,2.563
		c-0.795,0.756-0.818,0.817-0.516,1.266c0.609,0.904,1.846,0.081,2.531-1.685c0.221-0.567,0.566-1.248,0.77-1.513
		c0.725-0.941,0.406,0.197-1.189,4.249c-0.863,2.192-1.75,4.637-1.971,5.434c-0.686,2.467-0.455,4.827,0.578,5.969
		c0.312,0.346,0.312,0.404,0.008,0.71c-0.551,0.549-0.939,0.17-1.395-1.354c-0.482-1.619-1.029-2.443-1.502-2.262
		c-0.244,0.094-0.375,0.896-0.602,3.718c-0.377,4.656-0.391,19.841-0.021,24.038c0.859,9.775,2.311,18.275,4.385,25.681l0.799,2.852
		l-0.385,1.862c-0.76,3.684-0.719,7.942,0.121,12.9c0.498,2.937,2.205,10.743,2.393,10.944c0.252,0.269,2.336-1.991,3.617-3.919
		c1.906-2.869,3.492-6.337,5.08-11.102c1.205-3.616,1.988-6.453,4.467-16.156c2.514-9.85,2.889-11.069,5.209-16.965
		c3.525-8.958,4.369-12.072,4.158-15.332c-0.223-3.448-1.352-7.284-5.008-17.016c-1.287-3.424-3.48-9.4-4.875-13.281
		s-2.66-7.361-2.814-7.735l-0.279-0.68l3.242,0.057l3.242,0.057l0.826,1.349c2.674,4.362,3.93,7.444,4.258,10.457
		c0.301,2.762-0.133,3.507-1.842,3.165c-0.338-0.067-0.613-0.095-0.613-0.061c0,0.276,1.236,3.556,2.439,6.464
		c1.713,4.147,2.037,5.111,2.537,7.529l0.373,1.809l0.451-1.038c0.721-1.648,1.809-5.415,3.121-10.791
		c1.451-5.946,2.066-7.932,2.916-9.403c0.738-1.279,1.207-1.352,1.586-0.244c0.396,1.156,0.34,4.321-0.092,5.185
		c-0.355,0.709-0.352,0.749,0.127,1.705c0.48,0.961,0.484,1.023,0.238,3.424c-0.137,1.345-0.215,2.865-0.17,3.379l0.078,0.934
		l0.541-1.15c0.688-1.457,1.318-3.57,1.701-5.697c0.273-1.508,0.303-0.026,0.318,16.193l0.02,17.854l-0.605,1.756
		c-0.854,2.472-1.299,4.056-1.076,3.822c0.104-0.109,0.525-0.604,0.936-1.1l0.746-0.902v7.077v7.077l-1.156,2.002
		c-1.609,2.786-3.184,5.971-4.676,9.452c-1.395,3.252-3.812,10.382-4.537,13.374l-0.459,1.902l-0.611-0.213
		c-1.533-0.535-2.926,1.049-4.012,4.563c-0.133,0.429,0.123,0.342,2.516-0.857c2.791-1.397,12.59-5.949,12.809-5.949
		c0.07,0,0.127,1.898,0.127,4.219v4.218l-3.061,1.503c-5.145,2.527-9.428,5.337-13.52,8.87c-3.438,2.967-3.852,3.467-4.262,5.149
		c-0.854,3.507-2.502,6.651-6.857,13.081c-3.252,4.799-4.539,6.973-5.369,9.062c-0.498,1.258-1.176,3.531-1.086,3.64
		c0.021,0.024,0.92-0.319,2-0.763c5.432-2.236,14.236-4.252,25.824-5.912c2.854-0.409,5.445-0.786,5.76-0.838l0.57-0.095v3.921
		v3.921l-1.473,0.335c-0.811,0.184-3.826,0.699-6.701,1.143c-6.096,0.942-7.324,1.205-10.389,2.215
		c-10.412,3.434-18.656,9.394-31.203,22.557c-4.707,4.939-4.939,5.222-5.549,6.744c-0.742,1.854-1.18,2.752-3.869,7.918
		c-2.223,4.271-3.105,6.566-3.617,9.4c-0.309,1.712-0.428,2.002-1.168,2.812c-0.693,0.761-3.139,5.391-2.953,5.592
		c0.074,0.082,2.447-1.369,4.439-2.713c2.771-1.869,7.262-5.336,13.117-10.131c3.17-2.594,7.053-5.682,8.629-6.861
		c3.504-2.621,10.811-7.521,16.25-10.894c13.688-8.491,17.305-10.771,20.699-13.057l3.787-2.549v9.01v9.011l-2.336,1.17
		c-3.742,1.877-7.275,4.086-18.416,11.511c-14.604,9.733-20.227,13.994-25.73,19.495c-4.521,4.52-7.996,9.207-10.416,14.053
		c-0.697,1.398-1.23,2.582-1.182,2.631c0.047,0.047,1.439-0.328,3.092-0.836c10.715-3.29,21.984-5.907,43.264-10.047
		c5.934-1.154,11-2.15,11.258-2.213l0.467-0.113v4.039v4.041l-1.09,0.125c-0.6,0.068-2.35,0.226-3.891,0.35
		c-1.541,0.125-4.016,0.417-5.5,0.65c-2.475,0.39-4.713,0.929-17.43,4.201c-2.396,0.617-7.113,1.695-10.479,2.398
		c-11.617,2.422-16.121,3.701-20.449,5.811c-7.365,3.588-10.928,8.598-11.705,16.465c-0.115,1.164-0.354,6.271-0.531,11.352
		c-0.178,5.078-0.562,12.596-0.855,16.703c-0.443,6.205-0.562,9.775-0.703,21.062c-0.092,7.477-0.176,13.85-0.186,14.162
		l-0.018,0.572h-15.312h-15.314L433.579,667.796z M434.163,602.691c0.539-1.156,0.508-1.889-0.102-2.287
		c-0.539-0.354-1.479-0.242-1.645,0.193c-0.055,0.141,0.078,0.758,0.295,1.373c0.217,0.617,0.398,1.404,0.4,1.75
		c0.008,0.611,0.018,0.619,0.334,0.217C433.627,603.708,433.948,603.148,434.163,602.691z M434.973,595.636v-1.764h-0.57
		c-0.314,0-0.877,0.188-1.25,0.416c-0.373,0.227-0.863,0.414-1.09,0.414c-0.529,0-0.553,0.812-0.041,1.445
		c0.301,0.371,2.203,1.219,2.797,1.244C434.903,597.396,434.973,596.605,434.973,595.636z M432.831,589.068
		c0.096-0.922-0.416-2.24-0.936-2.414c-0.232-0.076-0.357,1.053-0.311,2.832C431.622,590.988,432.668,590.636,432.831,589.068z
		 M416.206,566.74c-0.391-1.035-2.629-4.244-5.369-7.695c-1.689-2.13-3.148-3.949-3.238-4.041c-0.264-0.27-2.666,0.435-4.516,1.322
		c-1.537,0.738-5.668,3.597-5.668,3.922c0,0.292,9.578,4.819,11.633,5.499c2.322,0.769,4.898,1.308,6.391,1.339
		C416.217,567.101,416.323,567.052,416.206,566.74z M320.107,566.042c0.121-0.113,0.066-0.184-0.139-0.184
		c-0.499,0-0.992,0.225-0.992,0.451C318.977,566.529,319.793,566.335,320.107,566.042z M423.684,563.267
		c0.559-0.17,1.451-0.311,1.98-0.312l0.963-0.003l0.145-5.239c0.141-5.091,0.018-7.163-0.512-8.554
		c-0.158-0.416-0.342-0.524-0.893-0.524c-1.547,0-3.225,0.698-8.092,3.367l-2.652,1.454l1,1.065c1.373,1.462,1.848,2.12,3.684,5.11
		C421.942,563.927,421.825,563.831,423.684,563.267z M437.659,560.638c0.307-1.43,0.273-3.249-0.078-4.421
		c-0.297-0.987-1.025-1.981-1.449-1.978c-0.314,0.002-0.408,6.075-0.109,6.982c0.287,0.869,0.824,1.221,1.17,0.766
		C437.329,561.808,437.538,561.201,437.659,560.638z M459.875,552.751c0.953-1.789,1.066-3.474,0.369-5.482l-0.51-1.466l4.539-9.323
		c2.498-5.127,6.023-12.31,7.838-15.962c1.814-3.652,3.594-7.48,3.955-8.508c0.932-2.643,1.029-4.728,0.346-7.366
		c-0.482-1.861-0.953-3.02-4.082-10.059c-2.285-5.141-2.814-7.166-3.426-13.148c-0.449-4.381-0.725-10.417-0.729-15.927
		c0-2.635-0.062-6.493-0.139-8.572l-0.137-3.781l-0.848,0.141c-1.99,0.331-6.891,1.642-10.176,2.72
		c-3.191,1.048-7.162,2.48-7.324,2.643c-0.033,0.035-0.336,1.641-0.67,3.569c-0.336,1.928-1.121,6.167-1.746,9.42
		c-1.908,9.932-1.881,9.736-1.416,10.361c0.219,0.293,1.014,0.903,1.764,1.354c1.686,1.012,1.977,1.466,1.512,2.365
		c-0.186,0.357-0.57,0.802-0.857,0.99c-0.498,0.327-0.576,0.313-1.865-0.341c-0.74-0.375-1.375-0.645-1.41-0.599
		c-0.146,0.184-0.992,5.389-1.178,7.243c-0.59,5.882,0.061,12.496,1.969,20.024c1.049,4.137,2.197,7.708,5.441,16.909
		c1.309,3.709,2.893,8.518,3.521,10.688c1.064,3.673,1.154,4.156,1.307,7.01c0.141,2.644,0.232,3.198,0.668,4.044
		c0.441,0.858,1.982,2.333,2.439,2.333C459.122,554.031,459.5,553.455,459.875,552.751z M413.233,546.011
		c1.41-0.416,3.412-1.42,5.611-2.816c0.965-0.611,2.172-1.334,2.686-1.605l0.932-0.495l-2.697-2.61
		c-1.484-1.436-4.615-4.852-6.959-7.591c-6.684-7.815-10.334-11.218-14.305-13.333c-1.795-0.957-5.404-2.215-6.986-2.436
		c-0.99-0.138-1.014-0.13-0.725,0.268c0.162,0.226,1.178,1.611,2.258,3.079c4.74,6.454,9.361,14.134,14.945,24.845l1.717,3.292
		l1.215-0.138C411.592,546.394,412.631,546.188,413.233,546.011z M422.131,522.276c-0.861-3.406-2.725-6.241-5.615-8.541
		c-2.254-1.792-4.363-2.951-9.768-5.363c-2.537-1.132-5.498-2.532-6.582-3.111s-2.016-1.009-2.068-0.954
		c-0.199,0.198,0.621,2.559,1.434,4.123c0.916,1.765,2.863,4.012,4.707,5.429c1.758,1.351,3.52,2.377,8.711,5.075
		c4.688,2.436,7.037,3.87,8.641,5.276c0.828,0.727,0.83,0.727,0.895,0.227C422.522,524.161,422.362,523.189,422.131,522.276z
		 M416.352,519.161c-0.617-0.314-1.41-1.113-2.639-2.658c-1.809-2.271-2.527-2.898-3.957-3.453l-0.824-0.319l1.244,0.086
		c2.553,0.176,5.438,1.788,8.189,4.572c1.746,1.768,1.744,1.952-0.016,2.116C417.469,519.587,417.045,519.515,416.352,519.161z
		 M418.657,507.912c0.314-1.727,0.543-4.631,0.545-6.905c0.006-8.509-2.6-15.618-8.135-22.198
		c-2.873-3.414-11.344-11.309-12.133-11.309c-0.699,0-1.545,0.685-2.029,1.644c-0.561,1.103-1.477,1.962-1.85,1.733
		c-0.129-0.08-1.242-0.877-2.475-1.772c-7.004-5.088-11.838-7.605-17.113-8.912c-1.434-0.355-2.464-0.452-4.925-0.462
		c-1.712-0.007-3.359,0.056-3.661,0.141l-0.548,0.154l0.301,1.091c2.278,8.255,4.248,13.464,6.677,17.664
		c2.965,5.125,6.432,8.748,10.445,10.912c1.566,0.845,4.309,1.958,4.457,1.81c0.104-0.103-0.52-2.931-1.586-7.195
		c-1.51-6.035-1.85-8.736-1.455-11.522c0.141-0.987,0.328-1.716,0.416-1.621c0.328,0.353,1.885,4.927,3.928,11.542
		c2.168,7.024,3.217,10.114,4.344,12.817l0.654,1.567l2.229,0.902c9.191,3.722,15.822,6.901,19.971,9.579
		c0.855,0.552,1.615,1.006,1.688,1.009C418.475,508.584,418.59,508.283,418.657,507.912z M392.901,508.245
		c0.67-0.11,0.777-0.204,0.773-0.672c-0.008-0.977-1.008-3.415-1.99-4.854c-1.389-2.033-2.955-3.353-7.809-6.581
		c-2.369-1.575-4.307-2.834-4.307-2.798c0,0.266,2.074,5.945,2.69,7.367C384.786,506.538,388.276,509.01,392.901,508.245z
		 M377.087,500.208c-0.722-5.091-2.585-8.879-6.225-12.656c-3.466-3.597-6.416-5.506-16.402-10.615
		c-3.823-1.956-7.825-4.098-8.893-4.759c-2.19-1.357-5.289-3.638-5.143-3.785c0.054-0.053,1.844,0.626,3.979,1.51
		c3.235,1.339,3.946,1.567,4.269,1.366c0.213-0.133,0.726-0.242,1.141-0.242c0.634,0,0.715,0.048,0.506,0.299
		c-0.137,0.165-0.524,0.328-0.862,0.363c-0.488,0.051,0.12,0.38,2.973,1.612c1.972,0.852,5.407,2.358,7.632,3.349
		s4.077,1.773,4.113,1.74c0.122-0.11-0.765-1.695-1.309-2.342c-0.295-0.351-1.639-1.385-2.986-2.298
		c-3.164-2.145-4.68-3.782-3.085-3.334c0.424,0.119,1.182,0.73,2.04,1.646c1.43,1.524,2.225,1.922,1.845,0.923
		c-0.389-1.023-0.619-1.3-1.962-2.37c-1.209-0.962-1.829-1.878-1.497-2.21c0.48-0.479,2.82,1.595,6.018,5.334
		c1.421,1.663,2.993,3.375,3.492,3.805c0.898,0.774,2.25,1.576,2.658,1.576c0.117,0-0.594-1.221-1.578-2.714
		c-3.39-5.141-5.25-9.524-5.998-14.129c-0.31-1.908-0.42-2.232-0.795-2.34c-0.24-0.069-2.303-0.182-4.586-0.251
		c-5.989-0.182-11.564,0.356-18.883,1.821c-2.871,0.575-16.936,3.874-17.064,4.002c-0.058,0.058,2.479,2.397,5.444,5.02
		c5.834,5.16,14.638,11.958,20.958,16.184c9.899,6.619,17.411,10.669,26.769,14.435c2.924,1.176,3.54,1.362,3.6,1.084
		C377.294,502.045,377.219,501.136,377.087,500.208z M354.016,468.796c-0.624-0.683-2.046-2.649-2.046-2.829
		c0-0.07,0.18-0.128,0.4-0.128c0.244,0,0.754,0.465,1.305,1.19c0.498,0.655,1.201,1.39,1.563,1.634
		c0.727,0.49,0.681,0.703-0.151,0.703C354.753,469.367,354.334,469.144,354.016,468.796z M355.61,466.558
		c-0.313-0.41-0.526-0.789-0.473-0.841s0.352,0.24,0.665,0.65c0.313,0.41,0.525,0.789,0.473,0.841
		C356.222,467.26,355.922,466.968,355.61,466.558z M281.002,482.436c6.694-1.25,11.058-2.605,12.938-4.02
		c0.934-0.703,1.887-2.344,1.677-2.89c-0.114-0.298-0.211-0.278-0.788,0.163c-1.609,1.227-4.691,2.501-10.818,4.474
		c-3.569,1.149-5.588,1.949-6.744,2.67c-0.616,0.385-0.647,0.438-0.208,0.348C277.345,483.123,279.119,482.788,281.002,482.436z
		 M498.057,470.289c0-0.439-0.084-0.687-0.209-0.61c-0.344,0.212-0.227,1.349,0.139,1.349
		C498.026,471.027,498.057,470.695,498.057,470.289z M319.198,470.07l1.127-0.335l-0.89-0.79c-1.59-1.412-3.673-1.8-5.644-1.051
		c-1.482,0.563-2.982,1.481-2.769,1.695c0.309,0.309,3.407,0.777,5.27,0.797C317.378,470.397,318.51,470.274,319.198,470.07z
		 M415.676,465.941c0-0.447-1.127-5.454-2.09-9.282c-3.119-12.419-7.285-21.935-11.807-26.971c-0.76-0.846-1.203-1.589-1.549-2.594
		c-2.709-7.87-6.832-14.365-12.641-19.912c-2.414-2.304-6.51-5.525-6.8-5.346c-0.101,0.062-0.185,0.382-0.185,0.71
		c0,0.942-0.986,6.054-1.781,9.235c-1.01,4.036-1.559,5.801-4.964,15.979c-2.983,8.914-4.796,15.031-4.604,15.533
		c0.056,0.146,0.648,0.385,1.316,0.532c1.789,0.393,5.404,1.583,7.676,2.53c4.376,1.821,8.397,4.02,16.468,9.005
		c10.867,6.713,18.643,10.821,20.596,10.881C415.512,466.249,415.676,466.113,415.676,465.941z M391.241,431.606
		c-0.484-0.22-0.881-0.545-0.881-0.722c0-0.426,0.26-0.405,1.189,0.093c0.424,0.228,0.938,0.361,1.141,0.297
		c0.467-0.148,0.504,0.437,0.039,0.615C392.274,432.064,392.233,432.057,391.241,431.606z M391.811,421.248
		c0-0.206,1.029-0.516,1.188-0.358c0.055,0.055,0.039,0.2-0.037,0.321C392.797,421.478,391.811,421.509,391.811,421.248z
		 M427.075,461.533c1.021-1.187,2.48-4.104,3.195-6.392c0.785-2.518,1.492-6.101,2.312-11.726
		c1.287-8.821,1.932-11.845,3.199-15.012l0.621-1.551l-1.65-8.261c-2.166-10.845-3.115-16.509-3.09-18.416l0.008-0.635l0.746,0.83
		c1.711,1.905,3.879,5.679,4.908,8.547c0.523,1.46,1.105,4.177,1.223,5.712c0.096,1.274,5.328-16.535,7.086-24.116
		c1.93-8.328,2.402-14.39,1.328-17.021l-0.271-0.666l-1.377,2.067c-2.049,3.079-4.396,5.892-7.152,8.573
		c-3.613,3.516-7.316,6.262-12.561,9.312c-2.129,1.239-2.221,1.321-2.355,2.122c-0.078,0.458-0.396,1.129-0.707,1.491
		c-0.562,0.651-0.566,0.677-0.404,2.623c0.324,3.891,1.211,7.016,2.58,9.087l0.723,1.092l-0.412,0.568
		c-0.516,0.708-1.049,2.736-1.047,3.983c0,0.518,0.232,2.749,0.518,4.958c0.285,2.208,0.518,4.729,0.516,5.603
		c-0.006,2.746-0.881,5.76-2.057,7.086l-0.459,0.519l0.164-3.735c0.223-5.024,0.188-6.176-0.223-7.251
		c-0.34-0.89-0.855-1.525-1.064-1.316c-0.172,0.171-1.293,9.16-1.547,12.382c-0.246,3.145-0.17,5.23,0.334,9.153
		c0.404,3.139,0.393,3.113,1.186,3.113c0.506,0,0.816-0.182,1.326-0.778l0.668-0.778l0.008,2.395
		c0.008,2.434,0.363,4.43,0.951,5.328c0.449,0.687,0.381,0.717-0.539,0.238c-0.461-0.24-0.875-0.4-0.922-0.354
		c-0.045,0.046,0.105,0.781,0.336,1.634c0.434,1.602,0.613,5.243,0.307,6.167c-0.234,0.709,0.439,0.604,1.266-0.197l0.686-0.664
		l-0.133,1.87c-0.109,1.543-0.07,2.003,0.23,2.635c0.199,0.421,0.438,0.765,0.531,0.765
		C426.151,462.519,426.608,462.076,427.075,461.533z M431.032,398.503c0.277-0.334,1.244-0.433,1.244-0.126
		c0,0.229-0.516,0.437-1.08,0.437C430.844,398.814,430.815,398.762,431.032,398.503z M437.879,386.192
		c0-0.223,0.701-0.444,1.418-0.448c0.295-0.002,0.451,0.098,0.398,0.256C439.596,386.302,437.879,386.483,437.879,386.192z
		 M459.198,449.544c2.266-0.459,7.836-2.13,8.512-2.554c0.205-0.129,0.188-0.63-0.086-2.433c-0.568-3.742-0.475-12.187,0.223-20.116
		c0.576-6.562,0.744-11.755,0.443-13.799l-0.168-1.141l-0.473,1.072c-0.26,0.59-0.871,1.658-1.357,2.375
		c-1.002,1.475-1.645,3.006-1.645,3.921c0,0.731,0.262,0.775,1.199,0.205c0.818-0.5,1.205-0.524,1.373-0.086
		c0.186,0.481,0.17,0.501-0.359,0.501c-0.986,0-2.977,1.229-4.354,2.688c-2.58,2.735-3.938,6.79-2.85,8.51
		c0.352,0.553,0.963-0.313,1.463-2.067c0.402-1.415,1.064-2.543,1.328-2.264c0.129,0.138-1.07,4.008-1.883,6.07
		c-0.412,1.045-1.633,3.814-2.713,6.154c-2.389,5.176-3.643,8.357-4.316,10.95c-0.773,2.982-0.848,2.833,1.307,2.667
		C455.84,450.121,457.799,449.827,459.198,449.544z M462.918,423.369c-0.289-0.289-0.107-0.837,0.693-2.101
		c0.455-0.718,0.828-1.395,0.828-1.504c0-0.299,0.412-0.24,0.533,0.076c0.141,0.366-0.203,1.248-1.002,2.578
		C463.315,423.506,463.178,423.63,462.918,423.369z M454.745,439.13c-0.166-0.436-0.441-0.307-0.791,0.371
		c-0.266,0.514-0.279,0.698-0.07,0.95c0.221,0.268,0.307,0.216,0.611-0.371C454.688,439.704,454.801,439.277,454.745,439.13z
		 M365.618,436.217c1.689-4.822,3.041-9.394,4.583-15.511c1.234-4.892,5.062-21.715,4.959-21.789
		c-0.029-0.021-0.842-0.309-1.807-0.64c-3.858-1.324-6.534-3.284-11.565-8.471c-2.003-2.065-3.582-3.577-3.508-3.36
		c0.904,2.676,1.099,10.15,0.445,17.141c-0.463,4.955-0.52,9.563-0.14,11.465c0.2,1.001,0.554,1.829,1.242,2.904l0.962,1.503
		l-0.002,3.321c0,1.827-0.082,4.909-0.181,6.849c-0.193,3.789-0.079,4.922,0.703,7.012c0.447,1.194,2.198,3.26,2.763,3.26
		C364.216,439.901,364.893,438.288,365.618,436.217z M456.479,436.314c1.084-1.887,1.189-2.25,0.809-2.753
		c-0.168-0.223-0.309-0.29-0.311-0.15c-0.004,0.139-0.439,0.953-0.967,1.807c-0.734,1.193-0.928,1.676-0.826,2.081
		c0.074,0.291,0.201,0.524,0.285,0.521S456.008,437.138,456.479,436.314z M330.891,432.305c0.512-0.196,0.386-0.542-0.139-0.384
		c-0.625,0.189-0.956,0.51-0.525,0.51C330.412,432.431,330.711,432.374,330.891,432.305z M458.954,430.004
		c-0.137-0.357-0.154-0.358-0.35-0.008c-0.115,0.202-0.141,0.576-0.061,0.83l0.148,0.463l0.203-0.456
		C459.006,430.583,459.034,430.209,458.954,430.004z M328.937,430.442c0-0.042-0.271-0.217-0.602-0.388
		c-0.332-0.171-1.382-0.906-2.334-1.632c-2.168-1.652-2.874-2.052-2.874-1.629c0,0.326,3.337,3.042,4.291,3.493
		C328.219,430.665,328.937,430.739,328.937,430.442z M524.446,421.848c1.766-6.619,2.016-9.063,1.201-11.703
		c-0.232-0.754-0.5-1.371-0.592-1.371c-0.279,0-1.035,2.841-1.68,6.312c-0.705,3.805-1.09,5.218-1.799,6.617
		c-0.453,0.895-0.479,1.056-0.215,1.358c0.166,0.188,0.365,0.552,0.443,0.809c0.215,0.708,0.73,1.12,1.314,1.05
		C523.61,424.86,523.696,424.661,524.446,421.848z M357.867,399.797c-0.01-0.198-0.035-0.804-0.055-1.346
		c-0.047-1.234-0.31-1.731-0.697-1.321c-0.212,0.225-0.214,0.303-0.009,0.378c0.393,0.144,0.311,0.683-0.104,0.687
		c-0.857,0.007-0.942,0.32-0.33,1.209C357.264,400.261,357.899,400.47,357.867,399.797z M360.063,361.996
		c0-0.321-0.244-0.695-0.674-1.034c-0.658-0.517-0.679-0.52-0.862-0.117c-0.259,0.569,0.149,1.392,0.747,1.506
		c0.263,0.05,0.548,0.104,0.634,0.12C359.993,362.487,360.063,362.273,360.063,361.996z M390.473,584.755
		c0.109-0.105,0.479-0.262,0.82-0.346c0.564-0.137,0.596-0.119,0.338,0.193c-0.156,0.191-0.525,0.346-0.82,0.346
		C390.479,584.949,390.35,584.876,390.473,584.755z M329.975,523.652c0-0.67,0.774-1.164,1.815-1.157l0.986,0.006l-0.678,0.617
		c-0.373,0.339-0.855,0.616-1.072,0.616c-0.217,0-0.542,0.057-0.723,0.126C330.087,523.943,329.975,523.872,329.975,523.652z
		 M315.858,518.183c-1.612-1.101-1.702-1.198-1.163-1.261c0.417-0.048,1.11,0.25,2.414,1.036c1.006,0.607,1.786,1.174,1.732,1.261
		C318.565,519.667,317.478,519.29,315.858,518.183z M307.875,373.728c-1.215-0.308-2.594-1.27-2.594-1.81
		c0-0.375-0.258-0.491-1.568-0.705c-2.564-0.417-4.529-1.838-5.672-4.103c-0.925-1.832-1.276-3.407-1.412-6.322
		c-0.121-2.598-0.115-2.646,0.318-2.646c0.312,0,0.479,0.167,0.57,0.57c0.858,3.795,2.39,6.916,4.634,9.436
		c1.215,1.365,3.912,3.35,5.909,4.349c0.926,0.463,1.722,0.877,1.769,0.921C310.151,373.715,308.72,373.941,307.875,373.728z
		 M537.11,370.032c-0.068-0.735-0.488-1.569-1.16-2.293c-0.695-0.751-0.537-1.243,0.324-1.013c0.963,0.256,1.023,0.391,0.949,2.121
		C537.184,369.75,537.133,370.283,537.11,370.032z M418.852,367.688c0.209-0.886,0.949-6.246,1.098-7.938
		c0.141-1.599,0.145-1.608,0.734-1.608c0.326,0,0.594,0.048,0.594,0.107c0,0.721-2.205,9.639-2.436,9.853
		C418.78,368.16,418.784,367.973,418.852,367.688z M535.551,365.895c-0.215-0.216-0.174-1.277,0.059-1.42
		c0.279-0.172,0.5,0.826,0.271,1.232C535.78,365.89,535.631,365.975,535.551,365.895z M534.215,362.57
		c-0.412-0.166-0.303-1.272,0.172-1.746c0.236-0.237,0.562-0.38,0.725-0.318c0.402,0.154,0.381,1.464-0.029,1.875
		C534.741,362.722,534.643,362.743,534.215,362.57z M504.489,361.485c0-0.206,1.029-0.516,1.188-0.357
		c0.055,0.055,0.037,0.2-0.037,0.321C505.473,361.716,504.489,361.747,504.489,361.485z"/>
</g>
</svg>
