<?xml version="1.0" encoding="UTF-8" standalone="no"?>
<!-- Created with Inkscape (http://www.inkscape.org/) -->
<svg
   xmlns:dc="http://purl.org/dc/elements/1.1/"
   xmlns:cc="http://creativecommons.org/ns#"
   xmlns:rdf="http://www.w3.org/1999/02/22-rdf-syntax-ns#"
   xmlns:svg="http://www.w3.org/2000/svg"
   xmlns="http://www.w3.org/2000/svg"
   xmlns:sodipodi="http://sodipodi.sourceforge.net/DTD/sodipodi-0.dtd"
   xmlns:inkscape="http://www.inkscape.org/namespaces/inkscape"
   width="744.09448819"
   height="1052.3622047"
   id="svg2"
   sodipodi:version="0.32"
   inkscape:version="0.46"
   sodipodi:docname="treequel.svgz"
   inkscape:output_extension="org.inkscape.output.svgz.inkscape">
  <defs
     id="defs4">
    <inkscape:perspective
       sodipodi:type="inkscape:persp3d"
       inkscape:vp_x="0 : 526.18109 : 1"
       inkscape:vp_y="0 : 1000 : 0"
       inkscape:vp_z="744.09448 : 526.18109 : 1"
       inkscape:persp3d-origin="372.04724 : 350.78739 : 1"
       id="perspective10" />
    <inkscape:perspective
       id="perspective2800"
       inkscape:persp3d-origin="372.04724 : 350.78739 : 1"
       inkscape:vp_z="744.09448 : 526.18109 : 1"
       inkscape:vp_y="0 : 1000 : 0"
       inkscape:vp_x="0 : 526.18109 : 1"
       sodipodi:type="inkscape:persp3d" />
    <filter
       inkscape:collect="always"
       id="filter3666"
       x="-0.12"
       width="1.24"
       y="-0.12"
       height="1.24">
      <feGaussianBlur
         inkscape:collect="always"
         stdDeviation="16.069505"
         id="feGaussianBlur3668" />
    </filter>
  </defs>
  <sodipodi:namedview
     id="base"
     pagecolor="#ffffff"
     bordercolor="#666666"
     borderopacity="1.0"
     gridtolerance="10000"
     guidetolerance="10"
     objecttolerance="10"
     inkscape:pageopacity="0.0"
     inkscape:pageshadow="2"
     inkscape:zoom="0.8799252"
     inkscape:cx="581.46934"
     inkscape:cy="576.95208"
     inkscape:document-units="px"
     inkscape:current-layer="layer1"
     showgrid="false"
     inkscape:snap-global="true"
     showguides="true"
     inkscape:guide-bbox="true"
     inkscape:window-width="1638"
     inkscape:window-height="1145"
     inkscape:window-x="0"
     inkscape:window-y="0">
    <inkscape:grid
       type="xygrid"
       id="grid3580" />
    <sodipodi:guide
       orientation="0,1"
       position="198.88054,877.34731"
       id="guide3582" />
    <sodipodi:guide
       orientation="1,0"
       position="150.01275,212.51806"
       id="guide3584" />
    <sodipodi:guide
       orientation="1,0"
       position="461.40286,320.48179"
       id="guide3586" />
    <sodipodi:guide
       orientation="0,1"
       position="321.61825,565.9572"
       id="guide3588" />
  </sodipodi:namedview>
  <metadata
     id="metadata7">
    <rdf:RDF>
      <cc:Work
         rdf:about="">
        <dc:format>image/svg+xml</dc:format>
        <dc:type
           rdf:resource="http://purl.org/dc/dcmitype/StillImage" />
      </cc:Work>
    </rdf:RDF>
  </metadata>
  <g
     inkscape:label="Layer 1"
     inkscape:groupmode="layer"
     id="layer1">
    <g
       id="g3680">
      <rect
         y="175.01488"
         x="150.01276"
         height="311.39011"
         width="311.39011"
         id="rect3578"
         style="opacity:1;fill:#e1e1c8;fill-opacity:1;fill-rule:nonzero;stroke:#000000;stroke-opacity:1;stroke-width:10;stroke-miterlimit:4;stroke-dasharray:none;stroke-linecap:butt;stroke-linejoin:round;filter:url(#filter3666)" />
      <path
         id="path2806"
         d="M 357.57773,484.6797 C 357.44826,483.7952 356.94918,481.85759 356.46866,480.3739 C 355.60216,477.6985 355.59418,477.64554 355.49696,473.94115 C 355.35069,468.36679 355.80476,465.12546 358.04058,455.78416 C 360.13187,447.04677 360.51128,444.52964 360.39148,440.188 C 360.31701,437.48904 360.29495,437.37547 359.51183,435.65585 C 357.75326,431.79431 357.53044,430.89075 357.52554,427.60127 C 357.52309,425.95965 357.42502,424.45106 357.30631,424.22926 C 357.18313,423.99909 356.87332,423.82787 356.58003,423.82787 C 355.97496,423.82787 355.95136,423.56193 356.47001,422.58776 L 356.85404,421.86642 L 356.26387,421.50751 C 355.39192,420.97727 355.03341,420.09642 354.59901,417.41713 C 354.38426,416.09252 354.20684,414.99341 354.20476,414.97463 C 354.20269,414.95585 353.79578,414.71402 353.30054,414.43723 C 351.55788,413.46325 349.28822,412.64545 345.69314,411.69623 C 341.10001,410.48347 338.6853,409.67632 336.97779,408.78302 L 335.62899,408.07737 L 336.77028,408.06813 C 339.31775,408.04753 342.99305,408.84957 349.27346,410.79666 C 351.52796,411.49561 353.40683,412.02893 353.44873,411.9818 C 353.56047,411.85615 353.00871,407.02304 352.62164,404.7371 C 351.78695,399.80755 350.23301,396.18962 347.98471,393.94133 C 346.51242,392.46904 344.61012,391.37923 343.08854,391.13634 C 342.35853,391.01981 341.96399,391.16155 339.46789,392.43721 C 331.81286,396.34933 325.70542,401.09716 316.01945,410.66568 C 313.01689,413.63181 310.5838,415.86447 310.07645,416.11908 C 305.70604,418.31234 298.47004,420.28801 291.01469,421.32352 C 286.56604,421.94143 286.64629,421.93289 282.15194,422.26795 C 271.0735,423.0939 256.09729,422.80347 239.61201,421.44302 L 235.93625,421.13969 L 231.62293,418.97896 C 229.25061,417.79058 226.46921,416.33265 225.44204,415.73913 C 220.03695,412.61595 216.62626,409.20781 214.73777,405.04282 C 214.39313,404.28274 214.13982,403.57485 214.17486,403.46973 C 214.33173,402.99912 215.94464,404.78529 217.53679,407.1928 C 218.49277,408.63834 219.72875,410.25606 220.2834,410.78774 C 225.0461,415.35311 233.7859,418.6792 244.53281,420.01634 C 246.57448,420.27037 249.01064,420.38112 252.7294,420.389 L 258.02086,420.40023 L 262.19762,419.52139 C 266.55972,418.60356 267.88511,418.4583 276.90412,417.90974 C 289.3546,417.15243 295.75194,415.6841 300.62061,412.46629 C 301.22455,412.06713 301.66606,411.68791 301.60174,411.62358 C 301.53742,411.55927 299.92858,411.24199 298.02653,410.91855 C 291.56151,409.81913 284.3818,408.01854 276.59286,405.54321 C 266.60248,402.36825 264.49927,401.81213 254.75413,399.76863 C 244.80155,397.68163 240.82837,396.57075 236.43526,394.6468 C 231.73244,392.58724 228.56817,390.35159 224.29778,386.07129 C 214.67412,376.42532 208.3306,367.1011 205.93844,359.08524 C 205.59024,357.91846 208.4632,362.06211 213.38991,369.83245 C 220.70074,381.36298 225.78271,386.93218 232.50284,390.77783 C 236.06124,392.81413 239.30777,393.62046 247.37474,394.47148 C 255.77502,395.35764 258.08814,395.83883 270.26385,399.23303 C 281.92942,402.48501 287.661,403.80045 292.8031,404.40594 C 299.4397,405.18742 302.66467,405.02875 307.20034,403.69767 C 310.61716,402.69495 312.76379,402.45964 314.13096,402.93796 L 315.04384,403.25734 L 318.38488,400.27528 C 324.68504,394.65205 328.92744,391.33192 332.5888,389.1592 C 333.81403,388.43211 334.03838,388.22514 333.7301,388.1063 C 333.51906,388.02494 332.88109,387.79068 332.31239,387.58573 C 330.9862,387.10779 328.32909,385.33193 325.56483,383.07607 C 323.09049,381.05681 321.23033,379.99293 319.31697,379.50276 C 317.07229,378.92769 316.50363,379.05477 307.71911,382.09451 C 303.69852,383.48578 301.5658,383.85657 298.3268,383.72748 C 296.50426,383.65483 295.38742,383.49758 294.37059,383.17042 C 293.05788,382.74808 292.91688,382.73879 292.45114,383.04395 C 291.95168,383.37121 291.75903,383.98626 292.15598,383.98626 C 292.46822,383.98626 292.40577,384.32936 292.02407,384.71107 C 291.61626,385.11887 291.50259,385.00613 291.03183,383.72688 C 290.62002,382.60785 290.08272,382.43522 289.22198,383.14542 L 288.7321,383.54963 L 289.41236,384.85737 C 289.7865,385.57661 290.08998,386.28183 290.08676,386.42449 C 290.07716,386.84949 289.45778,386.72027 288.78301,386.15249 C 287.85069,385.36798 285.95907,384.46806 284.12524,383.93655 C 282.68194,383.51825 282.06907,383.46882 278.46043,383.47986 C 274.15964,383.49298 274.57895,383.4418 264.34986,385.20214 C 258.98479,386.12543 254.14734,386.54748 251.5881,386.31555 C 249.84255,386.15736 249.55265,385.9356 250.49868,385.48217 C 251.22735,385.13294 251.2594,384.7543 250.53705,385.02895 C 249.55696,385.40158 248.38156,385.25126 246.85019,384.5575 C 245.6712,384.02337 245.10357,383.88726 244.11225,383.90104 C 242.87638,383.9182 242.8556,383.90884 242.34842,383.10508 C 241.73253,382.129 239.86694,380.68499 236.23248,378.37117 C 230.97618,375.02483 228.08425,372.6162 226.50231,370.26716 C 226.09678,369.66499 225.80146,369.13584 225.84603,369.09127 C 226.00325,368.93404 229.01399,371.10574 232.80859,374.11345 C 239.96461,379.78553 243.69912,381.86771 248.89049,383.07987 C 251.36065,383.65666 257.93637,383.61665 261.23724,383.00477 C 262.54973,382.76147 265.41428,382.23118 267.6029,381.82635 C 269.79153,381.42152 272.66293,380.97766 273.98378,380.83996 C 275.30464,380.70228 276.38535,380.52272 276.38535,380.44094 C 276.38535,380.35914 275.95969,379.72599 275.43945,379.03391 C 273.42595,376.35537 270.23499,373.94108 264.97239,371.11448 C 257.36642,367.02926 255.28821,365.52306 248.37172,359.08304 C 246.37445,357.22335 243.75019,354.85145 242.54002,353.81212 C 237.08506,349.12724 231.57946,346.00348 227.72463,345.40619 C 222.81934,344.6461 219.12044,343.35774 209.98267,339.22644 C 200.62484,334.99568 196.43056,333.45281 191.40233,332.39171 C 189.01744,331.88842 188.25507,331.82294 184.66665,331.81295 C 180.0506,331.80013 178.20609,332.06375 174.43874,333.27475 C 170.24981,334.62127 166.20221,336.8734 162.30388,340.0267 C 161.42143,340.74051 159.26011,342.72943 157.50094,344.44652 L 154.30244,347.56853 L 155.36592,346.01221 C 162.73189,335.23267 175.25467,329.33684 188.49787,330.41342 C 193.32615,330.80592 196.5467,331.74551 205.31373,335.31947 C 211.61171,337.88689 214.21207,338.7882 221.71748,341.0052 C 232.70877,344.25186 235.55078,345.34904 240.06926,348.09012 C 244.7592,350.93522 248.08526,353.44969 257.52262,361.28462 C 268.84137,370.68151 274.36708,374.46889 279.60173,376.41787 C 290.12615,380.3364 302.5618,380.08552 311.05158,375.78344 C 311.61544,375.4977 312.07679,375.18721 312.07679,375.09345 C 312.07679,374.88738 308.08902,371 305.64403,368.82263 C 295.56195,359.84414 283.18644,351.67464 271.3411,346.17809 C 267.82148,344.5449 260.91489,341.72415 259.21269,341.2247 C 256.6295,340.46672 260.43704,341.04349 264.24611,341.98717 C 272.83195,344.11424 281.96899,348.45071 291.42971,354.88857 C 295.35364,357.55872 300.12031,361.14017 307.89547,367.26013 C 313.18177,371.42107 314.48444,372.35507 314.847,372.24436 C 316.35875,371.78274 317.99396,370.94893 320.08793,369.57197 C 323.32689,367.44208 324.82351,366.70978 326.85565,366.26051 L 327.42019,366.13569 L 326.82538,364.52993 C 324.90619,359.34876 323.18358,356.17271 317.56964,347.46477 C 313.50904,341.16625 312.49117,339.41542 310.29669,334.95461 C 308.5242,331.3516 308.45734,331.25171 307.06659,330.12803 C 305.6366,328.97264 305.05853,328.17222 304.82573,327.0252 C 304.71046,326.45727 304.33591,326.21525 300.55464,324.26544 C 285.82937,316.67236 271.99176,307.99184 258.14817,297.6633 C 254.06889,294.61982 247.89197,289.82004 246.45459,288.57684 C 246.1655,288.32681 246.20105,288.52856 246.63349,289.59177 C 247.26759,291.15084 248.6817,296.64608 248.9015,298.40531 L 249.05452,299.63002 L 248.34998,299.09351 C 247.32143,298.31027 246.37411,296.60833 245.59288,294.14012 L 244.90482,291.96629 L 243.57752,291.66872 C 241.60778,291.22712 236.98789,291.24588 235.29869,291.70233 C 233.32444,292.23582 230.60476,293.6083 227.09211,295.84381 C 220.50883,300.0335 216.27347,301.60185 211.53898,301.60314 C 208.4379,301.60399 207.02704,302.08522 200.5189,305.36199 C 197.65349,306.80469 194.5253,308.28798 193.56737,308.65818 C 189.98775,310.04155 182.60652,311.65929 173.77246,312.99663 C 167.84698,313.89365 155.09743,315.46129 152.34722,315.63102 L 150.01275,315.77507 L 150.01275,314.708 L 150.01275,313.64091 L 151.32007,313.64091 C 154.75357,313.64091 162.55048,312.79434 167.54721,311.879 C 176.86303,310.17245 187.02804,306.8602 196.23782,302.53022 C 197.63732,301.87226 198.75715,301.30868 198.7263,301.27785 C 198.69547,301.24699 197.64379,301.44299 196.38926,301.71337 C 188.05153,303.51031 178.91855,303.87168 172.63356,302.65334 C 167.5655,301.67091 163.69266,299.67028 161.28858,296.79278 C 160.57212,295.93524 159.14312,293.32858 159.14312,292.87922 C 159.14312,292.7534 159.63336,293.06682 160.23254,293.5757 C 161.75746,294.87076 164.67284,296.73014 166.5078,297.57793 C 179.90843,303.76942 197.41681,300.76524 221.26551,288.18233 C 224.56676,286.44055 226.62197,285.3018 234.939,280.60626 L 236.75814,279.57922 L 236.18405,278.54583 C 235.8683,277.97748 234.65015,276.23343 233.47707,274.67021 C 231.31765,271.79263 230.22534,269.91008 229.97803,268.63975 C 229.85364,268.00089 229.87553,267.95962 230.23593,268.1536 C 231.04843,268.5909 232.73643,270.46113 234.67602,273.07302 C 235.7778,274.55671 237.26104,276.30756 237.97213,276.9638 C 239.51889,278.3913 240.06087,278.4733 241.56572,277.50764 C 242.22999,277.08138 242.86,276.85092 243.39959,276.83677 C 243.85167,276.8249 244.22155,276.78763 244.22155,276.75391 C 244.22155,276.3375 242.75461,274.00498 241.91488,273.0862 C 239.74993,270.71739 238.0045,269.80777 231.11394,267.45737 C 221.01786,264.01354 216.08002,261.00552 200.67976,248.91755 C 193.34306,243.15882 188.97736,239.92623 186.84548,238.67395 C 186.04658,238.20467 183.80421,237.10389 181.86245,236.22777 C 177.02011,234.04293 175.50216,233.26585 173.53145,231.9629 C 170.13222,229.71547 168.44165,226.95087 168.49558,223.7277 C 168.52348,222.06034 168.77102,221.99527 169.26393,223.52571 C 170.09791,226.11513 171.53304,227.91634 174.59295,230.21405 C 177.55,232.43454 181.39835,234.8799 187.67552,238.52714 C 203.17779,247.53445 207.21266,250.23737 212.12394,254.90483 L 214.4441,257.10982 L 217.55673,258.28701 C 219.26867,258.93448 222.81706,260.22342 225.44204,261.15131 C 235.78883,264.80875 240.14207,266.87483 244.84408,270.35966 C 246.61309,271.67074 248.66308,273.05104 249.39963,273.42701 C 250.6013,274.04038 250.91023,274.10869 252.4085,274.09232 C 253.90259,274.07601 254.53746,273.91957 258.4449,272.6048 C 260.84658,271.79668 263.4145,271.01117 264.15138,270.85922 C 265.17574,270.64798 267.60402,270.59726 274.4659,270.64382 L 283.44063,270.70473 L 283.4387,269.81379 C 283.43764,269.32378 283.12521,267.61993 282.74441,266.02745 L 282.05205,263.13204 L 280.82689,262.45104 C 279.22114,261.55848 276.53094,260.58166 274.20651,260.04716 C 272.60457,259.67879 271.55679,259.61152 266.83996,259.57427 C 263.81553,259.55037 261.22667,259.51967 261.08694,259.50602 C 260.62381,259.46083 260.23807,258.34914 260.08782,256.62661 L 259.93946,254.92592 L 258.77575,254.26915 C 258.13571,253.90792 256.21632,252.67893 254.51044,251.53805 C 251.09418,249.25324 249.24273,248.29567 247.90427,248.12134 C 246.66792,247.9603 245.03656,246.4443 237.67739,238.61762 C 228.42269,228.77499 224.03912,224.89925 219.83932,222.84603 C 217.34142,221.62486 215.74686,221.12083 210.3659,219.85157 C 205.8267,218.78086 202.99856,217.8325 200.46739,216.53233 C 196.65853,214.57585 194.89325,212.70933 190.74786,206.25534 C 188.00344,201.98254 185.8996,199.17413 180.72137,192.87105 C 176.0652,187.20342 173.39275,183.79365 171.66825,181.32021 C 170.17819,179.18302 167.85847,175.44976 167.85847,175.18891 C 167.85847,175.09894 168.3954,175.02886 169.05164,175.03317 L 170.24482,175.04101 L 172.42366,177.98669 C 176.88181,184.01389 180.85754,188.38689 184.45577,191.22112 C 186.26313,192.64472 186.29523,192.68808 191.82392,201.17138 C 197.45199,209.80719 201.30631,213.26721 207.49257,215.2371 C 210.19151,216.09652 215.55811,216.78716 216.90685,216.44865 L 217.42421,216.3188 L 216.77134,214.71096 C 215.9523,212.69385 212.61484,205.99819 209.45366,200.03008 C 204.59577,190.85874 202.40437,185.7095 201.15239,180.5243 C 200.73733,178.80526 200.19677,175.23283 200.35172,175.23283 C 200.37531,175.23283 200.95412,176.09659 201.63796,177.15229 C 204.10289,180.95761 206.77811,185.89013 211.8514,195.98367 C 219.18084,210.56594 221.5895,214.76764 225.93333,220.54836 C 230.94361,227.21599 234.37288,229.97734 244.17613,235.23804 C 250.201,238.47115 252.49736,239.80391 255.06386,241.55706 L 257.29458,243.08084 L 257.29335,241.99503 C 257.29154,240.38791 256.767,237.22037 256.15138,235.099 C 255.14153,231.61915 253.12249,227.63613 250.1028,223.16679 C 248.16532,220.29919 246.23966,217.06607 245.03007,214.64986 C 243.86182,212.31624 243.20458,210.51418 240.80107,203.05454 C 238.66982,196.43993 237.4879,194.06249 230.58376,182.50244 L 226.18008,175.12908 L 227.65853,175.06747 C 228.47168,175.03359 229.20947,175.08028 229.29808,175.17123 C 229.38668,175.26218 230.55103,177.15747 231.88553,179.383 C 235.20447,184.918 237.01029,187.59183 239.24311,190.27719 C 242.54488,194.24817 242.94301,195.13817 245.59955,204.48657 C 248.81603,215.80539 250.26451,218.83169 255.73255,225.65737 C 261.72847,233.14199 262.95486,236.16974 262.98848,243.57106 L 263.00623,247.47792 L 264.2487,248.41366 C 267.15595,250.6032 272.33278,252.61913 277.7161,253.658 C 280.78402,254.25004 280.67203,254.27096 281.03824,253.03778 C 282.38776,248.49343 281.56879,241.2666 279.34181,238.06816 L 278.57481,236.96657 L 278.49693,230.53381 C 278.4541,226.9958 278.52266,220.31921 278.6493,215.69697 C 279.09476,199.43688 278.18544,192.65645 274.61411,185.60826 C 274.0069,184.40989 273.23191,182.72907 272.89191,181.8731 C 272.55191,181.01713 271.75147,179.15688 271.11315,177.73921 C 270.47484,176.32153 269.95259,175.13096 269.95259,175.09347 C 269.95259,175.05599 271.04979,175.02595 272.39081,175.02673 L 274.82904,175.02812 L 277.42289,179.85066 L 280.01675,184.6732 L 280.28324,180.31616 C 280.42981,177.91978 280.595,175.74901 280.65033,175.49222 C 280.74595,175.04846 280.84715,175.02532 282.69301,175.02532 L 284.63509,175.02532 L 284.78589,179.04726 C 284.9863,184.39196 284.85616,184.74284 283.3253,182.98536 C 282.20017,181.69368 281.83752,181.84245 282.52061,183.31546 C 283.19526,184.77026 283.12658,185.40938 282.25195,185.81576 C 281.41469,186.20478 281.40929,186.44483 282.21708,187.36485 C 282.9615,188.2127 283.18388,188.26764 283.40892,187.65929 C 283.54011,187.30464 283.62232,187.44806 283.83656,188.40536 C 284.19157,189.99173 285.89882,193.35475 287.28948,195.20707 C 288.73773,197.13611 291.95001,200.3756 294.33482,202.31211 C 297.56691,204.93662 301.15983,207.40783 301.32206,207.11795 C 301.51527,206.7727 302.40023,202.88124 302.93392,200.03008 C 304.10721,193.76195 304.7431,185.25617 304.51241,178.91611 L 304.37083,175.02532 L 307.10436,175.02532 L 309.83789,175.02532 L 309.70554,178.18983 C 309.63275,179.93031 309.48156,184.34245 309.36956,187.9946 C 309.05824,198.14635 308.63303,202.79563 307.49186,208.52558 C 306.93093,211.34211 306.90529,211.64313 307.21169,211.8146 C 308.37509,212.46567 311.8684,215.33867 313.60769,217.07485 C 318.51368,221.97206 321.26407,226.17462 327.66546,238.55495 C 329.59247,242.28179 331.39437,245.72761 331.66968,246.21231 L 332.17025,247.09358 L 332.33197,246.07649 C 332.61702,244.28376 332.54586,237.49867 332.22881,236.24029 C 331.85229,234.74594 331.30439,233.6796 330.66779,233.2022 C 330.17495,232.83262 330.16338,232.77281 330.39251,231.77886 C 330.54507,231.1171 330.62831,228.56185 330.62234,224.72358 C 330.6145,219.67296 330.52452,217.88879 330.06247,213.62188 C 328.67654,200.82326 328.47386,198.76996 328.25994,195.36115 C 328.1346,193.36388 327.80375,188.48639 327.52472,184.5223 C 327.24569,180.5582 327.01739,176.7997 327.01739,176.17008 L 327.01739,175.02532 L 329.99387,175.02532 L 332.97035,175.02532 L 333.10158,178.50109 C 333.37275,185.68315 335.08653,194.11778 337.58233,200.55369 L 338.40003,202.66228 L 338.0732,204.14755 C 337.62997,206.16175 337.64083,210.94172 338.09589,214.14065 C 338.29071,215.51021 338.7224,218.26488 339.05519,220.26215 C 339.75686,224.47331 340.2003,227.85268 340.41664,230.63757 L 340.56978,232.6089 L 341.25128,231.15634 C 342.06163,229.42914 342.85354,227.00909 343.35627,224.72358 C 343.63576,223.45296 343.7197,222.13857 343.71407,219.12085 C 343.70701,215.33607 343.52942,213.70701 342.66825,209.52704 C 342.53588,208.88454 342.57075,208.83863 343.49048,208.44439 C 345.2077,207.7083 346.98448,206.3301 350.15457,203.27525 C 353.76958,199.79164 355.42398,198.51127 359.34074,196.16589 C 364.43185,193.11729 366.54076,191.37469 367.50176,189.42242 C 368.6456,187.09867 367.88793,183.5029 365.09964,178.02244 L 363.57478,175.02532 L 365.32065,175.02532 C 366.28088,175.02532 367.06858,175.09536 367.07111,175.18096 C 367.07366,175.26655 367.26812,175.57004 367.50325,175.85536 L 367.93076,176.37413 L 367.81509,175.69973 L 367.6994,175.02532 L 370.05807,175.02532 C 372.33207,175.02532 372.4208,175.04209 372.53041,175.49222 C 372.59293,175.74901 372.93273,177.78 373.28551,180.00553 C 374.2115,185.84717 374.09691,185.58754 374.93001,183.73132 C 375.71056,181.99224 377.051,178.02462 377.46819,176.2185 L 377.74381,175.02532 L 382.38203,175.02532 L 387.02028,175.02532 L 386.88044,175.69973 C 385.41668,182.75855 383.04013,192.78034 379.73294,205.84032 C 378.25899,211.66093 376.02381,220.48522 374.76589,225.44986 C 371.42636,238.62984 368.61282,250.56172 368.92514,250.21964 C 369.57995,249.50242 378.50804,234.02983 381.30479,228.76539 C 384.81173,222.16418 388.1825,214.38632 388.61955,211.88697 C 388.78099,210.96376 388.80896,210.95286 390.30744,211.22889 C 390.97979,211.35275 391.07145,211.30403 391.54183,210.57283 C 391.82128,210.13841 392.79877,208.61574 393.71404,207.18912 C 398.94525,199.03538 403.98907,188.86542 407.76184,178.86423 L 409.17084,175.12908 L 413.13886,175.07267 L 417.10686,175.01625 L 416.96673,175.48769 C 416.60633,176.7002 410.24889,192.46295 408.40738,196.70995 C 404.10681,206.62819 399.99659,215.06584 396.55853,221.03387 C 395.62366,222.65666 394.72251,224.3706 394.55597,224.8426 C 394.36496,225.38399 394.16724,227.35482 394.02035,230.18153 C 393.6586,237.14297 394.18391,247.38776 395.40339,257.15416 C 395.69249,259.46935 396.00487,261.56867 396.09761,261.81935 C 396.29864,262.36283 396.47658,262.10035 401.2014,254.29011 C 404.73013,248.45703 405.94664,246.56725 406.42821,246.17053 C 406.736,245.91698 406.75335,245.95045 406.60521,246.51195 C 406.5149,246.85434 406.45493,247.22785 406.47195,247.34198 C 406.48897,247.45611 406.55695,248.8101 406.62302,250.35085 C 406.97034,258.44991 403.40363,265.19611 397.56279,267.48769 L 396.09386,268.064 L 396.20734,268.8047 C 396.26976,269.21208 396.46285,272.20667 396.63643,275.45937 C 397.52925,292.18988 398.07774,297.8191 399.46686,304.50861 C 400.25394,308.29889 401.81098,313.04473 403.18776,315.84987 C 404.41168,318.34361 404.33381,318.33748 405.75794,316.05184 C 409.28817,310.38597 411.47433,302.72669 413.02042,290.60748 C 414.94064,275.55544 415.51965,266.05353 415.35729,252.2575 C 415.24432,242.65829 414.98608,237.82614 414.12976,229.28876 C 413.76263,225.62851 413.67081,223.38674 413.66656,217.97956 C 413.65979,209.39184 414.04887,204.8985 416.12987,189.53201 C 416.88132,183.98333 417.90606,175.67406 417.90606,175.12971 C 417.90606,175.0723 419.25565,175.02532 420.90516,175.02532 L 423.90425,175.02532 L 423.81621,176.01099 C 423.60642,178.35988 423.54213,180.00553 423.66014,180.00553 C 423.73011,180.00553 423.96383,179.84583 424.17951,179.65064 C 424.51781,179.34449 424.59797,179.33736 424.76332,179.59876 C 424.86873,179.76542 424.95642,180.26284 424.95817,180.70413 C 424.96149,181.54573 424.89946,181.57005 423.84841,181.13914 C 423.49648,180.99486 423.47459,181.05659 423.60463,181.82634 C 423.77574,182.83916 423.56147,183.30228 422.41872,184.38935 C 421.62417,185.14518 421.59933,185.20606 421.90219,185.6552 C 422.51169,186.55912 423.74883,185.7359 424.4339,183.97053 C 424.65394,183.40352 425.0006,182.72299 425.20429,182.45823 C 425.92883,181.51649 425.60979,182.65531 424.01409,186.70665 C 423.15073,188.89871 422.26363,191.34398 422.04276,192.1406 C 421.35885,194.60741 421.58746,196.96753 422.62092,198.1095 C 422.93432,198.45581 422.935,198.51397 422.62909,198.81987 C 422.07955,199.36941 421.689,198.99023 421.23524,197.46659 C 420.75303,195.84744 420.20583,195.02301 419.73363,195.20422 C 419.48887,195.29813 419.3587,196.10084 419.13067,198.92209 C 418.75435,203.57799 418.7414,218.76304 419.11019,222.95976 C 419.96911,232.7345 421.42025,241.23437 423.49461,248.6408 L 424.29319,251.49215 L 423.90919,253.35435 C 423.14953,257.03837 423.18922,261.29677 424.02946,266.25475 C 424.52719,269.19158 426.23418,276.99812 426.42268,277.19947 C 426.67366,277.46761 428.75889,275.20803 430.0392,273.28053 C 431.94484,270.41164 433.5322,266.94295 435.11962,262.17883 C 436.32453,258.5626 437.10871,255.72584 439.58553,246.02314 C 442.10005,236.17272 442.47425,234.95402 444.79467,229.05793 C 448.32041,220.09915 449.16498,216.986 448.9542,213.72564 C 448.73127,210.27753 447.60234,206.44205 443.94577,196.70995 C 442.65933,193.28606 440.46586,187.30982 439.07138,183.42942 C 437.67688,179.54901 436.40998,176.0683 436.25601,175.6945 L 435.97608,175.01487 L 439.21878,175.07198 L 442.46145,175.12908 L 443.28824,176.47789 C 445.96207,180.83982 447.21646,183.92147 447.54453,186.93425 C 447.84523,189.69581 447.41214,190.44081 445.70453,190.09928 C 445.36634,190.03165 445.08964,190.0043 445.08964,190.03853 C 445.08964,190.31439 446.32762,193.59502 447.52884,196.50244 C 449.24243,200.64991 449.5672,201.61368 450.06613,204.03189 L 450.43923,205.84032 L 450.89202,204.80278 C 451.6113,203.15448 452.70041,199.38792 454.01203,194.01234 C 455.4629,188.06615 456.07854,186.08047 456.92727,184.60961 C 457.66554,183.33015 458.13503,183.25799 458.51411,184.36573 C 458.90968,185.52168 458.85328,188.68713 458.42173,189.5505 C 458.06734,190.25951 458.07029,190.29909 458.54878,191.25546 C 459.02987,192.21701 459.03416,192.27839 458.78831,194.67976 C 458.65061,196.02463 458.57345,197.54517 458.61684,198.05875 L 458.69572,198.99254 L 459.23771,197.84209 C 459.92398,196.38543 460.55493,194.27205 460.93862,192.14477 C 461.21066,190.63658 461.23975,192.11811 461.25668,208.33826 L 461.2753,226.19182 L 460.66966,227.9478 C 459.81722,230.41935 459.37157,232.00332 459.59427,231.77011 C 459.69867,231.6608 460.1196,231.16566 460.52968,230.66981 L 461.2753,229.76827 L 461.2753,236.84499 L 461.2753,243.9217 L 460.11916,245.92428 C 458.51073,248.71029 456.93526,251.89494 455.44338,255.37588 C 454.04952,258.62814 451.63122,265.75804 450.90727,268.74983 L 450.44701,270.6519 L 449.83702,270.43926 C 448.30347,269.90466 446.91115,271.48838 445.8252,275.00258 C 445.6927,275.43131 445.94726,275.34461 448.34072,274.14588 C 451.13185,272.74798 460.93035,268.19657 461.1487,268.19657 C 461.21833,268.19657 461.2753,270.09482 461.2753,272.41489 L 461.2753,276.6332 L 458.21455,278.13689 C 453.07176,280.66345 448.78842,283.47384 444.69525,287.00715 C 441.25864,289.97373 440.84491,290.47374 440.43484,292.15605 C 439.58001,295.66282 437.93119,298.80719 433.57569,305.23682 C 430.32448,310.03632 429.03724,312.2096 428.20812,314.29906 C 427.70908,315.55669 427.03103,317.83023 427.12248,317.93919 C 427.14296,317.96358 428.04243,317.62021 429.12128,317.17614 C 434.55374,314.94012 443.35832,312.92463 454.94629,311.26448 C 457.79953,310.85571 460.39079,310.47848 460.70465,310.42621 L 461.2753,310.33115 L 461.2753,314.252 L 461.2753,318.17283 L 459.80259,318.50779 C 458.99258,318.69203 455.97763,319.20645 453.10268,319.65095 C 447.00669,320.5935 445.7782,320.85544 442.71251,321.86637 C 432.30074,325.29975 424.0565,331.2597 411.51019,344.42328 C 406.80291,349.36215 406.57021,349.64498 405.96146,351.1673 C 405.21991,353.0217 404.78125,353.9194 402.09249,359.08524 C 399.86939,363.35643 398.98625,365.65157 398.47547,368.48551 C 398.16684,370.19798 398.04655,370.48758 397.30693,371.29902 C 396.61393,372.05927 394.16882,376.68898 394.35367,376.89085 C 394.42785,376.97186 396.80137,375.52136 398.79441,374.17701 C 401.56481,372.30834 406.0544,368.84096 411.91095,364.04693 C 415.08014,361.45268 418.96281,358.36513 420.53909,357.18569 C 424.04295,354.56392 431.35069,349.66475 436.78931,346.29141 C 450.47758,337.80113 454.09399,335.51997 457.48827,333.23495 L 461.2753,330.68552 L 461.2753,339.69595 L 461.2753,348.70636 L 458.94083,349.87701 C 455.19746,351.7542 451.66365,353.96283 440.52446,361.38734 C 425.9203,371.12133 420.29786,375.38125 414.79353,380.88271 C 410.27143,385.40247 406.79712,390.08988 404.37834,394.93449 C 403.67972,396.33378 403.14734,397.51786 403.19527,397.5658 C 403.2432,397.61374 404.63515,397.23758 406.28845,396.72994 C 417.0029,393.43998 428.27172,390.82304 449.55107,386.68319 C 455.48581,385.52859 460.55161,384.53272 460.8084,384.47011 L 461.2753,384.35629 L 461.2753,388.39663 L 461.2753,392.43696 L 460.18588,392.56151 C 459.5867,392.63001 457.83585,392.78771 456.29509,392.91195 C 454.75435,393.03618 452.27981,393.32881 450.79613,393.56222 C 448.32026,393.95169 446.08263,394.49102 433.36542,397.76353 C 430.96871,398.38029 426.25308,399.45934 422.88626,400.16142 C 411.27091,402.58356 406.76611,403.8637 402.4383,405.97213 C 395.07194,409.56091 391.51041,414.5704 390.73288,422.43647 C 390.61775,423.60119 390.3787,428.70951 390.20165,433.78827 C 390.02463,438.86704 389.63972,446.38403 389.34633,450.4927 C 388.90334,456.69627 388.78421,460.26775 388.64376,471.5548 C 388.55074,479.03029 388.46682,485.40339 388.45726,485.71724 L 388.43987,486.28789 L 373.1265,486.28789 L 357.81312,486.28789 L 357.57773,484.6797 z M 358.16174,419.57395 C 358.70186,418.41795 358.66987,417.68504 358.06187,417.28667 C 357.52274,416.93343 356.58316,417.04378 356.41577,417.48 C 356.36196,417.62024 356.49528,418.23853 356.71203,418.854 C 356.92877,419.46947 357.10907,420.25676 357.1127,420.60352 C 357.11909,421.21503 357.12916,421.22151 357.4466,420.819 C 357.62664,420.59074 357.94844,420.03047 358.16174,419.57395 z M 358.97368,412.51867 L 358.97368,410.75485 L 358.40303,410.75562 C 358.08917,410.75605 357.52664,410.94281 357.15296,411.17063 C 356.77928,411.39847 356.28904,411.58488 356.06354,411.58488 C 355.5336,411.58488 355.50966,412.39875 356.021,413.03024 C 356.32251,413.40257 358.22544,414.24991 358.81805,414.27572 C 358.90365,414.27944 358.97368,413.48877 358.97368,412.51867 z M 356.83051,405.95167 C 356.92576,405.02926 356.4145,403.71112 355.89423,403.5377 C 355.6623,403.46039 355.53842,404.58936 355.58357,406.36878 C 355.62167,407.86982 356.66861,407.51961 356.83051,405.95167 z M 340.20538,383.62312 C 339.81482,382.58753 337.57662,379.37902 334.83724,375.92776 C 333.14635,373.79748 331.68844,371.97863 331.59743,371.88585 C 331.33371,371.617 328.93141,372.32097 327.08308,373.20874 C 325.54538,373.9473 321.41466,376.8054 321.41466,377.13079 C 321.41466,377.42234 330.99235,381.94982 333.04651,382.62929 C 335.36913,383.39756 337.94482,383.93688 339.43822,383.96765 C 340.21688,383.98367 340.32333,383.93588 340.20538,383.62312 z M 244.10742,382.9254 C 244.22791,382.81282 244.174,382.74122 243.96876,382.74122 C 243.47042,382.74122 242.9765,382.96582 242.9765,383.19242 C 242.9765,383.41161 243.79349,383.21871 244.10742,382.9254 z M 347.68337,380.1496 C 348.24362,379.97965 349.13502,379.83959 349.66425,379.83834 L 350.62649,379.8361 L 350.77185,374.59651 C 350.91311,369.50492 350.78922,367.43313 350.26032,366.04202 C 350.10211,365.6259 349.91825,365.518 349.36734,365.518 C 347.82155,365.518 346.14231,366.21691 341.2768,368.88528 L 338.62426,370.33999 L 339.62431,371.40476 C 340.99724,372.86658 341.47131,373.52459 343.3068,376.51596 C 345.94176,380.81029 345.825,380.71336 347.68337,380.1496 z M 361.65898,377.52045 C 361.96541,376.09169 361.93304,374.27205 361.58036,373.10021 C 361.28312,372.11256 360.55531,371.11948 360.13068,371.12214 C 359.81741,371.12411 359.7227,377.19806 360.02182,378.1044 C 360.30883,378.97403 360.84628,379.32592 361.19209,378.87065 C 361.32801,378.69173 361.53811,378.08414 361.65898,377.52045 z M 383.87588,369.63451 C 384.82951,367.84533 384.94256,366.16067 384.24382,364.15147 L 383.73424,362.68613 L 388.27426,353.36351 C 390.77127,348.23608 394.29818,341.05276 396.11182,337.40061 C 397.92547,333.74847 399.70546,329.91994 400.06733,328.89277 C 400.99848,326.2498 401.09607,324.16449 400.41213,321.52622 C 399.92967,319.66519 399.45954,318.50671 396.33023,311.46761 C 394.04488,306.32696 393.51704,304.30137 392.90383,298.31897 C 392.45472,293.93743 392.17929,287.90194 392.17701,282.39231 C 392.17591,279.75707 392.11339,275.89951 392.03806,273.81995 L 391.90111,270.0389 L 391.0524,270.18021 C 389.06364,270.51137 384.16173,271.82189 380.877,272.9006 C 377.68525,273.94879 373.71588,275.3811 373.55392,275.54305 C 373.51929,275.57769 373.21724,277.18383 372.88272,279.11222 C 372.54819,281.04064 371.76294,285.2797 371.13769,288.5324 C 369.22866,298.46397 369.25541,298.26823 369.7213,298.89304 C 369.9401,299.1865 370.73413,299.79603 371.48579,300.24757 C 373.17098,301.25992 373.46092,301.71395 372.99612,302.61277 C 372.81158,302.96963 372.42632,303.4151 372.13996,303.60271 C 371.64103,303.92964 371.56329,303.9154 370.27436,303.26117 C 369.53463,302.88571 368.89945,302.61634 368.86286,302.66262 C 368.71757,302.84634 367.87191,308.05194 367.68619,309.90576 C 367.0969,315.78835 367.74713,322.40168 369.65503,329.93031 C 370.70348,334.06749 371.85244,337.63784 375.09662,346.83996 C 376.40386,350.54791 377.98806,355.35692 378.61708,357.52664 C 379.68198,361.19992 379.77199,361.68264 379.92408,364.53615 C 380.06499,367.18027 380.15659,367.73518 380.59169,368.58068 C 381.0336,369.43937 382.57545,370.91324 383.03187,370.91324 C 383.12122,370.91324 383.50104,370.33782 383.87588,369.63451 z M 337.23239,362.89366 C 338.64254,362.47839 340.64447,361.47408 342.84518,360.07783 C 343.80818,359.46687 345.01598,358.74424 345.52917,358.47199 L 346.46224,357.977 L 343.7638,355.36663 C 342.27966,353.93092 339.14849,350.51514 336.80563,347.77603 C 330.12126,339.96112 326.47027,336.55811 322.50139,334.44341 C 320.70491,333.4862 317.09624,332.22803 315.51507,332.00762 C 314.52364,331.8694 314.50113,331.8777 314.78879,332.2752 C 314.95207,332.5008 315.96806,333.8864 317.04656,335.35427 C 321.78818,341.80787 326.40894,349.48833 331.99343,360.1985 L 333.71,363.4906 L 334.92409,363.35325 C 335.59184,363.2777 336.63057,363.0709 337.23239,362.89366 z M 346.13152,339.15892 C 345.27024,335.753 343.40578,332.91754 340.51574,330.61843 C 338.26256,328.82598 336.15275,327.66742 330.74872,325.25507 C 328.21238,324.12286 325.25045,322.7227 324.16663,322.14358 C 323.08281,321.56449 322.15168,321.13507 322.09742,321.18931 C 321.8989,321.38784 322.71969,323.748 323.53139,325.31261 C 324.44688,327.0773 326.39522,329.3241 328.23908,330.74146 C 329.99682,332.09261 331.7583,333.11887 336.94993,335.81652 C 341.63726,338.25211 343.98632,339.68665 345.58939,341.09254 C 346.41797,341.81921 346.41954,341.81961 346.48536,341.31968 C 346.52162,341.04423 346.36239,340.07189 346.13152,339.15892 z M 340.3513,336.04378 C 339.7354,335.72978 338.9426,334.93099 337.71259,333.38514 C 335.9053,331.1138 335.18684,330.48683 333.75639,329.93272 L 332.93138,329.61314 L 334.17643,329.69917 C 336.72813,329.87549 339.61368,331.48677 342.36523,334.27176 C 344.11169,336.03942 344.11042,336.22325 342.35069,336.38793 C 341.46898,336.47044 341.04503,336.39746 340.3513,336.04378 z M 342.65691,324.79448 C 342.9708,323.06749 343.19979,320.16321 343.20134,317.88939 C 343.20715,309.38006 340.60173,302.2709 335.0661,295.69143 C 332.19392,292.27767 323.72374,284.38223 322.93366,284.38223 C 322.23567,284.38223 321.38992,285.0674 320.90385,286.02661 C 320.34492,287.1296 319.42852,287.98897 319.0558,287.75963 C 318.92656,287.6801 317.81271,286.88278 316.58059,285.9878 C 309.57579,280.89976 304.74258,278.38291 299.46703,277.07606 C 298.03434,276.72119 297.00329,276.62442 294.54233,276.61394 C 292.83039,276.60664 291.18293,276.66997 290.8813,276.75468 L 290.3329,276.90867 L 290.63403,277.99973 C 292.91229,286.25443 294.88141,291.46414 297.31048,295.66359 C 300.27526,300.78921 303.74262,304.41164 307.75563,306.57585 C 309.32245,307.42082 312.06504,308.53413 312.21367,308.38551 C 312.31701,308.28215 311.69352,305.45447 310.62717,301.1904 C 309.11796,295.15548 308.77693,292.45453 309.17239,289.66863 C 309.31245,288.68199 309.49974,287.95268 309.58861,288.04794 C 309.91734,288.40034 311.47393,292.97467 313.51622,299.58995 C 315.68485,306.61449 316.732,309.70418 317.86015,312.40708 L 318.51442,313.9746 L 320.7427,314.87683 C 329.93486,318.59868 336.56395,321.77851 340.71294,324.45612 C 341.56892,325.00853 342.3289,325.46239 342.40179,325.46469 C 342.47469,325.46702 342.58949,325.1654 342.65691,324.79448 z M 316.90136,325.1282 C 317.57135,325.01745 317.6789,324.92403 317.67514,324.45608 C 317.66727,323.4789 316.66736,321.04115 315.68421,319.60227 C 314.29527,317.56948 312.72878,316.24945 307.87474,313.02145 C 305.50655,311.44657 303.56894,310.18763 303.56894,310.22381 C 303.56894,310.48942 305.64299,316.16882 306.25938,317.59106 C 308.78578,323.42049 312.27634,325.89266 316.90136,325.1282 z M 301.08745,317.09113 C 300.3654,312.00016 298.50233,308.21218 294.86276,304.43517 C 291.39654,300.83808 288.44728,298.92935 278.46043,293.81981 C 274.63709,291.86367 270.63533,289.72198 269.56764,289.06048 C 267.37732,287.70346 264.27807,285.4224 264.42499,285.27549 C 264.4783,285.22218 266.26891,285.90175 268.40412,286.78567 C 271.63903,288.12483 272.35079,288.35252 272.67295,288.15133 C 272.8856,288.01854 273.39911,287.90987 273.81409,287.90987 C 274.44779,287.90987 274.52882,287.9578 274.32022,288.20914 C 274.18362,288.37373 273.79564,288.53715 273.45805,288.57228 C 272.96975,288.6231 273.57753,288.95268 276.43049,290.18414 C 278.40293,291.03553 281.83763,292.54235 284.06316,293.53264 C 286.28869,294.52295 288.13943,295.30613 288.17592,295.27303 C 288.29724,295.16305 287.41117,293.57756 286.86689,292.93074 C 286.57196,292.58024 285.22805,291.54614 283.88043,290.63277 C 280.71634,288.48826 279.2008,286.85044 280.7949,287.29828 C 281.21863,287.41733 281.97698,288.02898 282.83514,288.94386 C 284.26461,290.4678 285.06005,290.86585 284.68037,289.86723 C 284.29149,288.8444 284.06176,288.56703 282.71763,287.49747 C 281.50904,286.53577 280.88885,285.61981 281.22124,285.28742 C 281.70113,284.80752 284.04124,286.882 287.23863,290.62177 C 288.66022,292.28452 290.23146,293.99681 290.73027,294.42692 C 291.62823,295.20115 292.98032,296.0027 293.38839,296.0027 C 293.50465,296.0027 292.79438,294.78111 291.81001,293.28805 C 288.42062,288.14715 286.56031,283.76443 285.81259,279.15866 C 285.5028,277.25039 285.39278,276.92658 285.01749,276.81844 C 284.77793,276.74943 282.71435,276.6364 280.43176,276.5673 C 274.44291,276.38599 268.86779,276.92361 261.5485,278.38822 C 258.67754,278.96271 244.61295,282.26159 244.48374,282.39081 C 244.42574,282.44881 246.96276,284.78776 249.92803,287.41009 C 255.76281,292.57005 264.56596,299.36765 270.88638,303.59369 C 280.78584,310.21279 288.29724,314.26321 297.65496,318.02824 C 300.57834,319.20446 301.19494,319.3902 301.25461,319.11255 C 301.29422,318.92828 301.21899,318.01865 301.08745,317.09113 z M 278.01626,285.67915 C 277.39195,284.99643 275.97033,283.03058 275.97033,282.85 C 275.97033,282.7797 276.15049,282.72216 276.37068,282.72216 C 276.61447,282.72216 277.12488,283.18773 277.67589,283.91266 C 278.17356,284.56743 278.87676,285.30263 279.23856,285.54645 C 279.96541,286.03628 279.91945,286.2498 279.0872,286.2498 C 278.753,286.2498 278.33384,286.02646 278.01626,285.67915 z M 279.60971,283.44047 C 279.29694,283.03041 279.08415,282.65181 279.13682,282.59913 C 279.1895,282.54646 279.48849,282.83886 279.80126,283.24892 C 280.11402,283.65898 280.32682,284.03758 280.27415,284.09024 C 280.22147,284.14293 279.92247,283.85053 279.60971,283.44047 z M 205.00247,299.31889 C 211.69631,298.06927 216.05984,296.71345 217.94024,295.29893 C 218.87439,294.59623 219.82707,292.95498 219.61763,292.40919 C 219.50338,292.11143 219.40689,292.13134 218.82953,292.57171 C 217.22058,293.79892 214.13891,295.07347 208.01134,297.04601 C 204.442,298.19502 202.42292,298.99457 201.26732,299.7166 C 200.65126,300.10151 200.61977,300.15427 201.05981,300.06422 C 201.34513,300.00584 203.11933,299.67045 205.00247,299.31889 z M 422.05622,287.17135 C 422.05622,286.73184 421.97221,286.48474 421.84872,286.56106 C 421.50469,286.7737 421.62123,287.90987 421.98706,287.90987 C 422.0251,287.90987 422.05622,287.57754 422.05622,287.17135 z M 243.19822,286.95255 L 244.3253,286.61774 L 243.43575,285.82814 C 241.84525,284.41641 239.76209,284.02836 237.79207,284.77691 C 236.30934,285.34031 234.80932,286.25845 235.02282,286.47196 C 235.33169,286.78084 238.42987,287.24922 240.29311,287.26873 C 241.37815,287.2801 242.51042,287.15686 243.19822,286.95255 z M 339.6754,282.8244 C 339.6754,282.37737 338.54911,277.37077 337.58734,273.54257 C 334.46725,261.12336 330.30149,251.60796 325.77966,246.57152 C 325.0204,245.72584 324.57637,244.98232 324.23062,243.97767 C 321.52206,236.10726 317.39882,229.61249 311.58974,224.06622 C 309.176,221.76168 305.08029,218.54126 304.79073,218.72022 C 304.6894,218.78284 304.60649,219.1025 304.60649,219.43055 C 304.60649,220.37329 303.62011,225.48477 302.82424,228.66624 C 301.81466,232.70201 301.26637,234.46699 297.86066,244.64437 C 294.87777,253.55825 293.06463,259.67607 293.25708,260.1776 C 293.31317,260.32375 293.90543,260.56321 294.57322,260.70971 C 296.36243,261.10226 299.97664,262.29315 302.24955,263.23912 C 306.62559,265.06038 310.64636,267.2592 318.71705,272.24465 C 329.58445,278.95769 337.36035,283.06604 339.31226,283.12603 C 339.51199,283.13215 339.6754,282.99642 339.6754,282.8244 z M 315.24129,248.48888 C 314.75564,248.26842 314.35938,247.94415 314.35938,247.76715 C 314.35938,247.34153 314.61924,247.36178 315.54847,247.85982 C 315.97338,248.08756 316.48662,248.22134 316.68901,248.1571 C 317.15676,248.00864 317.19455,248.59361 316.72876,248.77236 C 316.27364,248.947 316.23383,248.9394 315.24129,248.48888 z M 315.81194,238.13037 C 315.81194,237.92482 316.84056,237.61477 316.9985,237.7727 C 317.05353,237.82773 317.037,237.97234 316.96177,238.09406 C 316.79674,238.36108 315.81194,238.39217 315.81194,238.13037 z M 351.07474,278.41636 C 352.09712,277.22902 353.55511,274.31166 354.26915,272.02463 C 355.05517,269.50699 355.76224,265.92371 356.58289,260.29901 C 357.86994,251.47763 358.51442,248.45377 359.78244,245.28707 L 360.40354,243.7359 L 358.7533,235.4748 C 356.58696,224.63004 355.63626,218.9661 355.66218,217.05896 L 355.67081,216.42324 L 356.41637,217.25328 C 358.12715,219.15791 360.2948,222.93233 361.32485,225.80013 C 361.84908,227.25963 362.43035,229.97711 362.54666,231.51217 C 362.64324,232.78672 367.87643,214.97704 369.63278,207.39663 C 371.5622,199.06914 372.0354,193.00703 370.96144,190.37505 L 370.68993,189.70964 L 369.31341,191.77709 C 367.26374,194.85556 364.9163,197.66919 362.16123,200.3496 C 358.54725,203.86569 354.84349,206.61157 349.59992,209.66235 C 347.47112,210.90091 347.37972,210.98325 347.24437,211.7844 C 347.16692,212.24283 346.84859,212.91384 346.53696,213.27552 C 345.97581,213.92684 345.97194,213.95199 346.13356,215.89867 C 346.45658,219.78929 347.34394,222.91417 348.71402,224.98588 L 349.43641,226.07822 L 349.02349,226.64595 C 348.50872,227.35374 347.97552,229.38211 347.9764,230.62929 C 347.97676,231.14743 348.2102,233.3783 348.49517,235.58678 C 348.78013,237.79526 349.01166,240.31649 349.00967,241.18951 C 349.00344,243.93557 348.12918,246.9494 346.95407,248.27577 L 346.49447,248.79454 L 346.6594,245.05939 C 346.88123,240.03556 346.8456,238.88367 346.43516,237.80894 C 346.09521,236.9188 345.58125,236.28302 345.37132,236.49295 C 345.20053,236.66374 344.07842,245.65258 343.82562,248.8751 C 343.5789,252.01997 343.65482,254.10576 344.15881,258.02866 C 344.56203,261.16721 344.55216,261.14129 345.34399,261.14131 C 345.8503,261.14131 346.15996,260.95974 346.67102,260.36316 L 347.33763,259.58498 L 347.34542,261.9796 C 347.35334,264.41324 347.71009,266.40951 348.29755,267.30738 C 348.74658,267.99365 348.67796,268.02395 347.75926,267.5451 C 347.29782,267.30458 346.88283,267.14523 346.83707,267.19099 C 346.79132,267.23674 346.94229,267.97197 347.17258,268.82481 C 347.60499,270.42625 347.78646,274.0675 347.47996,274.99247 C 347.24506,275.70134 347.91827,275.59649 348.74469,274.79548 L 349.42964,274.1316 L 349.29692,276.00142 C 349.18735,277.54505 349.22756,278.00477 349.5274,278.63665 C 349.72716,279.0576 349.96607,279.40203 350.05832,279.40203 C 350.15056,279.40203 350.60796,278.95848 351.07474,278.41636 z M 355.03102,215.38571 C 355.30865,215.05118 356.27607,214.95331 356.27607,215.25975 C 356.27607,215.48845 355.76104,215.69697 355.19615,215.69697 C 354.84327,215.69697 354.81575,215.64509 355.03102,215.38571 z M 361.87879,203.07509 C 361.87879,202.85272 362.58017,202.63097 363.29676,202.62677 C 363.59211,202.62504 363.74768,202.72511 363.69566,202.88332 C 363.59653,203.18478 361.87879,203.36608 361.87879,203.07509 z M 383.19727,266.4269 C 385.46372,265.96799 391.03277,264.29701 391.70858,263.87309 C 391.91493,263.74365 391.89739,263.24277 391.62346,261.44004 C 391.05487,257.6984 391.14812,249.25326 391.84558,241.32425 C 392.42278,234.76246 392.58991,229.56902 392.2896,227.52558 L 392.12198,226.38493 L 391.64892,227.45683 C 391.38875,228.04638 390.77776,229.11496 390.2912,229.83146 C 389.2892,231.30698 388.64738,232.83788 388.64738,233.75242 C 388.64738,234.48333 388.90896,234.52798 389.84557,233.95693 C 390.66512,233.45725 391.05101,233.43308 391.21903,233.87092 C 391.40396,234.35286 391.38972,234.37272 390.85935,234.37272 C 389.87284,234.37272 387.88323,235.60122 386.50695,237.06014 C 383.92677,239.79527 382.56904,243.85013 383.65757,245.56992 C 384.00757,246.12291 384.62045,245.25656 385.11973,243.50308 C 385.52273,242.08777 386.18427,240.95993 386.44773,241.23906 C 386.57761,241.37667 385.37686,245.24733 384.56471,247.30907 C 384.15295,248.35435 382.93262,251.12382 381.85285,253.46348 C 379.46418,258.63926 378.21004,261.82082 377.53632,264.41384 C 376.76165,267.39534 376.68867,267.24627 378.84196,267.08076 C 379.84024,267.00402 381.80014,266.70978 383.19727,266.4269 z M 386.91815,240.25212 C 386.62925,239.96324 386.81039,239.41467 387.61181,238.15141 C 388.06724,237.43351 388.43987,236.75651 388.43987,236.64697 C 388.43987,236.34824 388.85233,236.40722 388.97362,236.72328 C 389.11398,237.08906 388.77063,237.97117 387.97028,239.30104 C 387.31555,240.38895 387.17867,240.51267 386.91815,240.25212 z M 378.74495,256.01291 C 378.57776,255.57718 378.3036,255.70548 377.953,256.38351 C 377.68709,256.89768 377.67344,257.08128 377.88234,257.33299 C 378.10495,257.60124 378.19086,257.54922 378.49432,256.96238 C 378.68849,256.58692 378.80127,256.15966 378.74495,256.01291 z M 289.61797,253.10034 C 291.30771,248.27803 292.65861,243.7065 294.20157,237.5891 C 295.43551,232.69686 299.26424,215.87353 299.16046,215.79985 C 299.13134,215.77918 298.31844,215.49146 297.35402,215.16046 C 293.49575,213.8363 290.82032,211.87668 285.78914,206.68974 C 283.78616,204.62474 282.2073,203.11253 282.28057,203.32926 C 283.18516,206.00491 283.37925,213.47979 282.72564,220.46966 C 282.26232,225.42453 282.206,230.033 282.58553,231.9345 C 282.78539,232.93582 283.13944,233.76386 283.82727,234.83865 L 284.78944,236.3421 L 284.78779,239.66321 C 284.78689,241.48982 284.70545,244.57175 284.60682,246.51195 C 284.41422,250.30091 284.52782,251.43438 285.30955,253.52341 C 285.75652,254.71783 287.50735,256.78361 288.07271,256.78361 C 288.21585,256.78361 288.89248,255.17082 289.61797,253.10034 z M 380.4798,253.19708 C 381.56231,251.31017 381.66897,250.94696 381.2884,250.44374 C 381.1203,250.22145 380.9798,250.1538 380.97616,250.29339 C 380.97253,250.43299 380.53824,251.24611 380.01109,252.10034 C 379.27497,253.29312 379.08332,253.77586 379.18499,254.181 C 379.25783,254.47114 379.38565,254.70538 379.46909,254.70152 C 379.55251,254.69763 380.00733,254.02064 380.4798,253.19708 z M 254.89126,249.18738 C 255.40261,248.99116 255.27755,248.64528 254.7526,248.8039 C 254.12672,248.99298 253.79636,249.31331 254.22723,249.31331 C 254.41192,249.31331 254.71073,249.25664 254.89126,249.18738 z M 382.95353,246.88656 C 382.81597,246.52944 382.7996,246.52909 382.60303,246.87928 C 382.48961,247.08131 382.463,247.45483 382.54389,247.70931 L 382.69095,248.17202 L 382.89439,247.7166 C 383.0063,247.46609 383.0329,247.09258 382.95353,246.88656 z M 252.9369,247.32511 C 252.9369,247.28319 252.66594,247.10876 252.33475,246.93751 C 252.00357,246.76625 250.95305,246.03202 250.00028,245.30591 C 247.83185,243.65332 247.12667,243.25342 247.12667,243.67633 C 247.12667,244.00203 250.46384,246.71863 251.41753,247.16927 C 252.21918,247.54808 252.9369,247.62168 252.9369,247.32511 z M 448.44586,238.73039 C 450.21091,232.11152 450.46168,229.66731 449.64649,227.02803 C 449.41364,226.27417 449.14712,225.65737 449.05419,225.65737 C 448.77489,225.65737 448.01937,228.4979 447.37547,231.96892 C 446.66968,235.77368 446.28545,237.1868 445.57633,238.58621 C 445.12295,239.48092 445.09765,239.64162 445.36258,239.94387 C 445.52786,240.13243 445.72692,240.49626 445.80497,240.75237 C 446.02073,241.46044 446.53639,241.87253 447.11893,241.80241 C 447.60938,241.74337 447.69566,241.54363 448.44586,238.73039 z M 281.86703,216.67979 C 281.85752,216.48163 281.83274,215.87594 281.81197,215.33383 C 281.76468,214.09944 281.50246,213.60253 281.11481,214.0127 C 280.90243,214.2374 280.90064,214.31603 281.10616,214.39139 C 281.49834,214.53519 281.41687,215.07399 281.00241,215.07762 C 280.14557,215.08512 280.06026,215.39821 280.67293,216.28691 C 281.2639,217.14414 281.89935,217.35321 281.86703,216.67979 z M 284.06316,178.87927 C 284.06316,178.55803 283.81883,178.1835 283.38876,177.84545 C 282.73113,177.32855 282.70968,177.32564 282.52622,177.72843 C 282.26708,178.29739 282.67536,179.12076 283.27328,179.23502 C 283.53652,179.28533 283.82193,179.3392 283.90753,179.35474 C 283.99313,179.37029 284.06316,179.15632 284.06316,178.87927 z M 314.47351,401.63917 C 314.58193,401.53311 314.95078,401.37754 315.29317,401.29348 C 315.85704,401.15503 315.88886,401.17319 315.6309,401.4863 C 315.47426,401.67644 315.10542,401.83199 314.81124,401.83199 C 314.47873,401.83199 314.35096,401.75902 314.47351,401.63917 z M 253.97444,340.53544 C 253.97444,339.8654 254.74907,339.37161 255.79014,339.37804 L 256.77581,339.38413 L 256.09813,340.00057 C 255.72541,340.3396 255.24281,340.617 255.02568,340.617 C 254.80856,340.617 254.48321,340.67369 254.30268,340.74295 C 254.08729,340.8256 253.97444,340.75428 253.97444,340.53544 z M 239.85769,335.06615 C 238.24572,333.96544 238.15566,333.86775 238.6953,333.80545 C 239.11222,333.75731 239.80572,334.05494 241.10947,334.84152 C 242.11554,335.4485 242.89499,336.01583 242.84159,336.10224 C 242.56495,336.54985 241.47757,336.17229 239.85769,335.06615 z M 231.8748,190.61061 C 230.65981,190.30303 229.28095,189.3409 229.28095,188.80071 C 229.28095,188.42568 229.02246,188.30958 227.71295,188.09645 C 225.14825,187.67904 223.18426,186.25823 222.04079,183.99303 C 221.11635,182.16172 220.76446,180.58604 220.62895,177.67106 C 220.50819,175.07333 220.51396,175.02532 220.94684,175.02532 C 221.2582,175.02532 221.42561,175.19297 221.51669,175.59597 C 222.37428,179.39052 223.90694,182.51133 226.15041,185.03113 C 227.36586,186.39627 230.06254,188.38085 232.05958,189.37986 C 232.98512,189.84286 233.78128,190.25751 233.82884,190.30131 C 234.15092,190.59795 232.71967,190.8245 231.8748,190.61061 z M 461.10954,186.91494 C 461.04239,186.17988 460.62104,185.34645 459.95038,184.62218 C 459.25456,183.87075 459.41173,183.37931 460.27444,183.60878 C 461.23753,183.86495 461.29781,183.99978 461.22263,185.73003 C 461.18341,186.63315 461.13251,187.16637 461.10954,186.91494 z M 342.85188,184.57071 C 343.06057,183.68508 343.80198,178.32517 343.9498,176.63352 C 344.08948,175.03494 344.09387,175.02532 344.68422,175.02532 C 345.01087,175.02532 345.27813,175.0736 345.27813,175.1326 C 345.27813,175.85309 343.07268,184.77105 342.84141,184.98573 C 342.77994,185.04279 342.78465,184.85604 342.85188,184.57071 z M 459.55186,182.77811 C 459.33559,182.56184 459.3784,181.5007 459.60915,181.35809 C 459.88846,181.18546 460.10937,182.18357 459.88184,182.59015 C 459.77962,182.7728 459.63112,182.85738 459.55186,182.77811 z M 458.21455,179.45308 C 457.80327,179.28713 457.912,178.18111 458.38622,177.70689 C 458.6233,177.4698 458.95012,177.32681 459.1125,177.38911 C 459.51461,177.54342 459.49307,178.853 459.08164,179.26443 C 458.74137,179.6047 458.64322,179.62605 458.21455,179.45308 z M 428.48898,178.36795 C 428.48898,178.16241 429.5176,177.85235 429.67554,178.01029 C 429.73057,178.06532 429.71405,178.20993 429.63881,178.33166 C 429.47378,178.59867 428.48898,178.62976 428.48898,178.36795 z"
         style="fill:#646464;fill-opacity:1;stroke:none;stroke-opacity:1;stroke-width:2;stroke-miterlimit:4;stroke-dasharray:none" />
      <rect
         y="175.01488"
         x="150.01276"
         height="311.39011"
         width="311.39011"
         id="rect3670"
         style="opacity:1;fill:none;fill-opacity:1;fill-rule:nonzero;stroke:#646464;stroke-width:20;stroke-linecap:butt;stroke-linejoin:miter;stroke-miterlimit:4;stroke-dasharray:none;stroke-opacity:1" />
    </g>
    <rect
       style="opacity:1;fill:#ffffff;fill-opacity:1;fill-rule:nonzero;stroke:none;stroke-width:10;stroke-linecap:butt;stroke-linejoin:miter;stroke-miterlimit:4;stroke-dasharray:none;stroke-opacity:1"
       id="rect3672"
       width="150.01276"
       height="556.86554"
       x="0"
       y="0" />
    <rect
       y="0"
       x="461.40286"
       height="556.86554"
       width="150.01276"
       id="rect3674"
       style="opacity:1;fill:#ffffff;fill-opacity:1;fill-rule:nonzero;stroke:none;stroke-width:10;stroke-linecap:butt;stroke-linejoin:miter;stroke-miterlimit:4;stroke-dasharray:none;stroke-opacity:1" />
    <rect
       style="opacity:1;fill:#ffffff;fill-opacity:1;fill-rule:nonzero;stroke:none;stroke-width:10;stroke-linecap:butt;stroke-linejoin:miter;stroke-miterlimit:4;stroke-dasharray:none;stroke-opacity:1"
       id="rect3676"
       width="481.85916"
       height="181.83366"
       x="46.594872"
       y="486.40497" />
    <rect
       y="-6.8187914"
       x="97.73558"
       height="181.83366"
       width="481.85916"
       id="rect3678"
       style="opacity:1;fill:#ffffff;fill-opacity:1;fill-rule:nonzero;stroke:none;stroke-width:10;stroke-linecap:butt;stroke-linejoin:miter;stroke-miterlimit:4;stroke-dasharray:none;stroke-opacity:1" />
  </g>
</svg>
