<?xml version="1.0" encoding="UTF-8" standalone="no"?>
<!-- Created with Inkscape (http://www.inkscape.org/) -->
<svg
   xmlns:dc="http://purl.org/dc/elements/1.1/"
   xmlns:cc="http://creativecommons.org/ns#"
   xmlns:rdf="http://www.w3.org/1999/02/22-rdf-syntax-ns#"
   xmlns:svg="http://www.w3.org/2000/svg"
   xmlns="http://www.w3.org/2000/svg"
   xmlns:xlink="http://www.w3.org/1999/xlink"
   xmlns:sodipodi="http://sodipodi.sourceforge.net/DTD/sodipodi-0.dtd"
   xmlns:inkscape="http://www.inkscape.org/namespaces/inkscape"
   width="744.09448819"
   height="1052.3622047"
   id="svg2"
   sodipodi:version="0.32"
   inkscape:version="0.46"
   sodipodi:docname="treequel-red.svg"
   inkscape:output_extension="org.inkscape.output.svg.inkscape"
   enable-background="new"
   inkscape:export-filename="/Users/mgranger/source/ruby/Treequel/docs/treequel-red-small.png"
   inkscape:export-xdpi="10.18"
   inkscape:export-ydpi="10.18">
  <defs
     id="defs4">
    <linearGradient
       inkscape:collect="always"
       id="linearGradient3200">
      <stop
         style="stop-color:#f6f6f6;stop-opacity:1"
         offset="0"
         id="stop3202" />
      <stop
         id="stop3216"
         offset="0.69638079"
         style="stop-color:#cfcfcf;stop-opacity:1" />
      <stop
         style="stop-color:#919191;stop-opacity:1"
         offset="1"
         id="stop3204" />
    </linearGradient>
    <marker
       inkscape:stockid="Arrow1Lstart"
       orient="auto"
       refY="0.0"
       refX="0.0"
       id="Arrow1Lstart"
       style="overflow:visible">
      <path
         id="path4981"
         d="M 0.0,0.0 L 5.0,-5.0 L -12.5,0.0 L 5.0,5.0 L 0.0,0.0 z "
         style="fill-rule:evenodd;stroke:#000000;stroke-width:1.0pt;marker-start:none"
         transform="scale(0.8) translate(12.5,0)" />
    </marker>
    <linearGradient
       id="linearGradient4795">
      <stop
         style="stop-color:#ddddac;stop-opacity:1;"
         offset="0"
         id="stop4797" />
      <stop
         id="stop4953"
         offset="0.89583331"
         style="stop-color:#b3b38b;stop-opacity:1;" />
      <stop
         id="stop4803"
         offset="0.99131942"
         style="stop-color:#c4c4b2;stop-opacity:1;" />
      <stop
         style="stop-color:#38382b;stop-opacity:1;"
         offset="1"
         id="stop4799" />
    </linearGradient>
    <linearGradient
       id="linearGradient4783">
      <stop
         style="stop-color:#e1e1c8;stop-opacity:1;"
         offset="0"
         id="stop4785" />
      <stop
         id="stop4791"
         offset="0.92000002"
         style="stop-color:#777641;stop-opacity:1;" />
      <stop
         style="stop-color:#000000;stop-opacity:1;"
         offset="1"
         id="stop4787" />
    </linearGradient>
    <inkscape:perspective
       sodipodi:type="inkscape:persp3d"
       inkscape:vp_x="0 : 526.18109 : 1"
       inkscape:vp_y="0 : 1000 : 0"
       inkscape:vp_z="744.09448 : 526.18109 : 1"
       inkscape:persp3d-origin="372.04724 : 350.78739 : 1"
       id="perspective10" />
    <inkscape:perspective
       id="perspective2800"
       inkscape:persp3d-origin="372.04724 : 350.78739 : 1"
       inkscape:vp_z="744.09448 : 526.18109 : 1"
       inkscape:vp_y="0 : 1000 : 0"
       inkscape:vp_x="0 : 526.18109 : 1"
       sodipodi:type="inkscape:persp3d" />
    <radialGradient
       inkscape:collect="always"
       xlink:href="#linearGradient3200"
       id="radialGradient3206"
       cx="325.20715"
       cy="417.81296"
       fx="325.20715"
       fy="417.81296"
       r="155.69505"
       gradientUnits="userSpaceOnUse"
       gradientTransform="matrix(0.6721494,-1.4038994,1.3868616,0.6639921,-432.09631,576.89469)" />
  </defs>
  <sodipodi:namedview
     id="base"
     pagecolor="#ffffff"
     bordercolor="#666666"
     borderopacity="1.0"
     gridtolerance="10000"
     guidetolerance="10"
     objecttolerance="10"
     inkscape:pageopacity="0.0"
     inkscape:pageshadow="2"
     inkscape:zoom="0.8799252"
     inkscape:cx="100.74666"
     inkscape:cy="576.95208"
     inkscape:document-units="px"
     inkscape:current-layer="layer2"
     showgrid="false"
     inkscape:snap-global="true"
     showguides="false"
     inkscape:guide-bbox="true"
     inkscape:window-width="1680"
     inkscape:window-height="940"
     inkscape:window-x="0"
     inkscape:window-y="22">
    <inkscape:grid
       type="xygrid"
       id="grid3580" />
    <sodipodi:guide
       orientation="0,1"
       position="198.88054,877.34731"
       id="guide3582" />
    <sodipodi:guide
       orientation="1,0"
       position="150.01275,212.51806"
       id="guide3584" />
    <sodipodi:guide
       orientation="1,0"
       position="461.40286,320.48179"
       id="guide3586" />
    <sodipodi:guide
       orientation="0,1"
       position="321.61825,565.9572"
       id="guide3588" />
  </sodipodi:namedview>
  <metadata
     id="metadata7">
    <rdf:RDF>
      <cc:Work
         rdf:about="">
        <dc:format>image/svg+xml</dc:format>
        <dc:type
           rdf:resource="http://purl.org/dc/dcmitype/StillImage" />
      </cc:Work>
    </rdf:RDF>
  </metadata>
  <g
     inkscape:groupmode="layer"
     id="layer2"
     inkscape:label="Backdrop">
    <rect
       style="opacity:0.73684207999999984;fill:url(#radialGradient3206);fill-opacity:1;stroke-width:5;stroke-miterlimit:4;stroke-dasharray:none;stroke:none;stroke-opacity:1"
       id="rect4793"
       width="311.39011"
       height="311.39011"
       x="150.01276"
       y="175.01488" />
  </g>
  <g
     inkscape:label="Tree"
     inkscape:groupmode="layer"
     id="layer1"
     style="display:inline">
    <path
       style="fill:#6a1005;fill-opacity:1;stroke:none;stroke-width:2;stroke-miterlimit:4;stroke-dasharray:none;stroke-opacity:1"
       d="M 357.57773,484.79679 C 357.44826,483.91229 356.94918,481.97468 356.46866,480.49099 C 355.60216,477.81559 355.59418,477.76263 355.49696,474.05824 C 355.35069,468.48388 355.80476,465.24255 358.04058,455.90125 C 360.13187,447.16386 360.51128,444.64673 360.39148,440.30509 C 360.31701,437.60613 360.29495,437.49256 359.51183,435.77294 C 357.75326,431.9114 357.53044,431.00784 357.52554,427.71836 C 357.52309,426.07674 357.42502,424.56815 357.30631,424.34635 C 357.18313,424.11618 356.87332,423.94496 356.58003,423.94496 C 355.97496,423.94496 355.95136,423.67902 356.47001,422.70485 L 356.85404,421.98351 L 356.26387,421.6246 C 355.39192,421.09436 355.03341,420.21351 354.59901,417.53422 C 354.38426,416.20961 354.20684,415.1105 354.20476,415.09172 C 354.20269,415.07294 353.79578,414.83111 353.30054,414.55432 C 351.55788,413.58034 349.28822,412.76254 345.69314,411.81332 C 341.10001,410.60056 338.6853,409.79341 336.97779,408.90011 L 335.62899,408.19446 L 336.77028,408.18522 C 339.31775,408.16462 342.99305,408.96666 349.27346,410.91375 C 351.52796,411.6127 353.40683,412.14602 353.44873,412.09889 C 353.56047,411.97324 353.00871,407.14013 352.62164,404.85419 C 351.78695,399.92464 350.23301,396.30671 347.98471,394.05842 C 346.51242,392.58613 344.61012,391.49632 343.08854,391.25343 C 342.35853,391.1369 341.96399,391.27864 339.46789,392.5543 C 331.81286,396.46642 325.70542,401.21425 316.01945,410.78277 C 313.01689,413.7489 310.5838,415.98156 310.07645,416.23617 C 305.70604,418.42943 298.47004,420.4051 291.01469,421.44061 C 286.56604,422.05852 286.64629,422.04998 282.15194,422.38504 C 271.0735,423.21099 256.09729,422.92056 239.61201,421.56011 L 235.93625,421.25678 L 231.62293,419.09605 C 229.25061,417.90767 226.46921,416.44974 225.44204,415.85622 C 220.03695,412.73304 216.62626,409.3249 214.73777,405.15991 C 214.39313,404.39983 214.13982,403.69194 214.17486,403.58682 C 214.33173,403.11621 215.94464,404.90238 217.53679,407.30989 C 218.49277,408.75543 219.72875,410.37315 220.2834,410.90483 C 225.0461,415.4702 233.7859,418.79629 244.53281,420.13343 C 246.57448,420.38746 249.01064,420.49821 252.7294,420.50609 L 258.02086,420.51732 L 262.19762,419.63848 C 266.55972,418.72065 267.88511,418.57539 276.90412,418.02683 C 289.3546,417.26952 295.75194,415.80119 300.62061,412.58338 C 301.22455,412.18422 301.66606,411.805 301.60174,411.74067 C 301.53742,411.67636 299.92858,411.35908 298.02653,411.03564 C 291.56151,409.93622 284.3818,408.13563 276.59286,405.6603 C 266.60248,402.48534 264.49927,401.92922 254.75413,399.88572 C 244.80155,397.79872 240.82837,396.68784 236.43526,394.76389 C 231.73244,392.70433 228.56817,390.46868 224.29778,386.18838 C 214.67412,376.54241 208.3306,367.21819 205.93844,359.20233 C 205.59024,358.03555 208.4632,362.1792 213.38991,369.94954 C 220.70074,381.48007 225.78271,387.04927 232.50284,390.89492 C 236.06124,392.93122 239.30777,393.73755 247.37474,394.58857 C 255.77502,395.47473 258.08814,395.95592 270.26385,399.35012 C 281.92942,402.6021 287.661,403.91754 292.8031,404.52303 C 299.4397,405.30451 302.66467,405.14584 307.20034,403.81476 C 310.61716,402.81204 312.76379,402.57673 314.13096,403.05505 L 315.04384,403.37443 L 318.38488,400.39237 C 324.68504,394.76914 328.92744,391.44901 332.5888,389.27629 C 333.81403,388.5492 334.03838,388.34223 333.7301,388.22339 C 333.51906,388.14203 332.88109,387.90777 332.31239,387.70282 C 330.9862,387.22488 328.32909,385.44902 325.56483,383.19316 C 323.09049,381.1739 321.23033,380.11002 319.31697,379.61985 C 317.07229,379.04478 316.50363,379.17186 307.71911,382.2116 C 303.69852,383.60287 301.5658,383.97366 298.3268,383.84457 C 296.50426,383.77192 295.38742,383.61467 294.37059,383.28751 C 293.05788,382.86517 292.91688,382.85588 292.45114,383.16104 C 291.95168,383.4883 291.75903,384.10335 292.15598,384.10335 C 292.46822,384.10335 292.40577,384.44645 292.02407,384.82816 C 291.61626,385.23596 291.50259,385.12322 291.03183,383.84397 C 290.62002,382.72494 290.08272,382.55231 289.22198,383.26251 L 288.7321,383.66672 L 289.41236,384.97446 C 289.7865,385.6937 290.08998,386.39892 290.08676,386.54158 C 290.07716,386.96658 289.45778,386.83736 288.78301,386.26958 C 287.85069,385.48507 285.95907,384.58515 284.12524,384.05364 C 282.68194,383.63534 282.06907,383.58591 278.46043,383.59695 C 274.15964,383.61007 274.57895,383.55889 264.34986,385.31923 C 258.98479,386.24252 254.14734,386.66457 251.5881,386.43264 C 249.84255,386.27445 249.55265,386.05269 250.49868,385.59926 C 251.22735,385.25003 251.2594,384.87139 250.53705,385.14604 C 249.55696,385.51867 248.38156,385.36835 246.85019,384.67459 C 245.6712,384.14046 245.10357,384.00435 244.11225,384.01813 C 242.87638,384.03529 242.8556,384.02593 242.34842,383.22217 C 241.73253,382.24609 239.86694,380.80208 236.23248,378.48826 C 230.97618,375.14192 228.08425,372.73329 226.50231,370.38425 C 226.09678,369.78208 225.80146,369.25293 225.84603,369.20836 C 226.00325,369.05113 229.01399,371.22283 232.80859,374.23054 C 239.96461,379.90262 243.69912,381.9848 248.89049,383.19696 C 251.36065,383.77375 257.93637,383.73374 261.23724,383.12186 C 262.54973,382.87856 265.41428,382.34827 267.6029,381.94344 C 269.79153,381.53861 272.66293,381.09475 273.98378,380.95705 C 275.30464,380.81937 276.38535,380.63981 276.38535,380.55803 C 276.38535,380.47623 275.95969,379.84308 275.43945,379.151 C 273.42595,376.47246 270.23499,374.05817 264.97239,371.23157 C 257.36642,367.14635 255.28821,365.64015 248.37172,359.20013 C 246.37445,357.34044 243.75019,354.96854 242.54002,353.92921 C 237.08506,349.24433 231.57946,346.12057 227.72463,345.52328 C 222.81934,344.76319 219.12044,343.47483 209.98267,339.34353 C 200.62484,335.11277 196.43056,333.5699 191.40233,332.5088 C 189.01744,332.00551 188.25507,331.94003 184.66665,331.93004 C 180.0506,331.91722 178.20609,332.18084 174.43874,333.39184 C 170.24981,334.73836 166.20221,336.99049 162.30388,340.14379 C 161.42143,340.8576 159.26011,342.84652 157.50094,344.56361 L 154.30244,347.68562 L 155.36592,346.1293 C 162.73189,335.34976 175.25467,329.45393 188.49787,330.53051 C 193.32615,330.92301 196.5467,331.8626 205.31373,335.43656 C 211.61171,338.00398 214.21207,338.90529 221.71748,341.12229 C 232.70877,344.36895 235.55078,345.46613 240.06926,348.20721 C 244.7592,351.05231 248.08526,353.56678 257.52262,361.40171 C 268.84137,370.7986 274.36708,374.58598 279.60173,376.53496 C 290.12615,380.45349 302.5618,380.20261 311.05158,375.90053 C 311.61544,375.61479 312.07679,375.3043 312.07679,375.21054 C 312.07679,375.00447 308.08902,371.11709 305.64403,368.93972 C 295.56195,359.96123 283.18644,351.79173 271.3411,346.29518 C 267.82148,344.66199 260.91489,341.84124 259.21269,341.34179 C 256.6295,340.58381 260.43704,341.16058 264.24611,342.10426 C 272.83195,344.23133 281.96899,348.5678 291.42971,355.00566 C 295.35364,357.67581 300.12031,361.25726 307.89547,367.37722 C 313.18177,371.53816 314.48444,372.47216 314.847,372.36145 C 316.35875,371.89983 317.99396,371.06602 320.08793,369.68906 C 323.32689,367.55917 324.82351,366.82687 326.85565,366.3776 L 327.42019,366.25278 L 326.82538,364.64702 C 324.90619,359.46585 323.18358,356.2898 317.56964,347.58186 C 313.50904,341.28334 312.49117,339.53251 310.29669,335.0717 C 308.5242,331.46869 308.45734,331.3688 307.06659,330.24512 C 305.6366,329.08973 305.05853,328.28931 304.82573,327.14229 C 304.71046,326.57436 304.33591,326.33234 300.55464,324.38253 C 285.82937,316.78945 271.99176,308.10893 258.14817,297.78039 C 254.06889,294.73691 247.89197,289.93713 246.45459,288.69393 C 246.1655,288.4439 246.20105,288.64565 246.63349,289.70886 C 247.26759,291.26793 248.6817,296.76317 248.9015,298.5224 L 249.05452,299.74711 L 248.34998,299.2106 C 247.32143,298.42736 246.37411,296.72542 245.59288,294.25721 L 244.90482,292.08338 L 243.57752,291.78581 C 241.60778,291.34421 236.98789,291.36297 235.29869,291.81942 C 233.32444,292.35291 230.60476,293.72539 227.09211,295.9609 C 220.50883,300.15059 216.27347,301.71894 211.53898,301.72023 C 208.4379,301.72108 207.02704,302.20231 200.5189,305.47908 C 197.65349,306.92178 194.5253,308.40507 193.56737,308.77527 C 189.98775,310.15864 182.60652,311.77638 173.77246,313.11372 C 167.84698,314.01074 155.09743,315.57838 152.34722,315.74811 L 150.01275,315.89216 L 150.01275,314.82509 L 150.01275,313.758 L 151.32007,313.758 C 154.75357,313.758 162.55048,312.91143 167.54721,311.99609 C 176.86303,310.28954 187.02804,306.97729 196.23782,302.64731 C 197.63732,301.98935 198.75715,301.42577 198.7263,301.39494 C 198.69547,301.36408 197.64379,301.56008 196.38926,301.83046 C 188.05153,303.6274 178.91855,303.98877 172.63356,302.77043 C 167.5655,301.788 163.69266,299.78737 161.28858,296.90987 C 160.57212,296.05233 159.14312,293.44567 159.14312,292.99631 C 159.14312,292.87049 159.63336,293.18391 160.23254,293.69279 C 161.75746,294.98785 164.67284,296.84723 166.5078,297.69502 C 179.90843,303.88651 197.41681,300.88233 221.26551,288.29942 C 224.56676,286.55764 226.62197,285.41889 234.939,280.72335 L 236.75814,279.69631 L 236.18405,278.66292 C 235.8683,278.09457 234.65015,276.35052 233.47707,274.7873 C 231.31765,271.90972 230.22534,270.02717 229.97803,268.75684 C 229.85364,268.11798 229.87553,268.07671 230.23593,268.27069 C 231.04843,268.70799 232.73643,270.57822 234.67602,273.19011 C 235.7778,274.6738 237.26104,276.42465 237.97213,277.08089 C 239.51889,278.50839 240.06087,278.59039 241.56572,277.62473 C 242.22999,277.19847 242.86,276.96801 243.39959,276.95386 C 243.85167,276.94199 244.22155,276.90472 244.22155,276.871 C 244.22155,276.45459 242.75461,274.12207 241.91488,273.20329 C 239.74993,270.83448 238.0045,269.92486 231.11394,267.57446 C 221.01786,264.13063 216.08002,261.12261 200.67976,249.03464 C 193.34306,243.27591 188.97736,240.04332 186.84548,238.79104 C 186.04658,238.32176 183.80421,237.22098 181.86245,236.34486 C 177.02011,234.16002 175.50216,233.38294 173.53145,232.07999 C 170.13222,229.83256 168.44165,227.06796 168.49558,223.84479 C 168.52348,222.17743 168.77102,222.11236 169.26393,223.6428 C 170.09791,226.23222 171.53304,228.03343 174.59295,230.33114 C 177.55,232.55163 181.39835,234.99699 187.67552,238.64423 C 203.17779,247.65154 207.21266,250.35446 212.12394,255.02192 L 214.4441,257.22691 L 217.55673,258.4041 C 219.26867,259.05157 222.81706,260.34051 225.44204,261.2684 C 235.78883,264.92584 240.14207,266.99192 244.84408,270.47675 C 246.61309,271.78783 248.66308,273.16813 249.39963,273.5441 C 250.6013,274.15747 250.91023,274.22578 252.4085,274.20941 C 253.90259,274.1931 254.53746,274.03666 258.4449,272.72189 C 260.84658,271.91377 263.4145,271.12826 264.15138,270.97631 C 265.17574,270.76507 267.60402,270.71435 274.4659,270.76091 L 283.44063,270.82182 L 283.4387,269.93088 C 283.43764,269.44087 283.12521,267.73702 282.74441,266.14454 L 282.05205,263.24913 L 280.82689,262.56813 C 279.22114,261.67557 276.53094,260.69875 274.20651,260.16425 C 272.60457,259.79588 271.55679,259.72861 266.83996,259.69136 C 263.81553,259.66746 261.22667,259.63676 261.08694,259.62311 C 260.62381,259.57792 260.23807,258.46623 260.08782,256.7437 L 259.93946,255.04301 L 258.77575,254.38624 C 258.13571,254.02501 256.21632,252.79602 254.51044,251.65514 C 251.09418,249.37033 249.24273,248.41276 247.90427,248.23843 C 246.66792,248.07739 245.03656,246.56139 237.67739,238.73471 C 228.42269,228.89208 224.03912,225.01634 219.83932,222.96312 C 217.34142,221.74195 215.74686,221.23792 210.3659,219.96866 C 205.8267,218.89795 202.99856,217.94959 200.46739,216.64942 C 196.65853,214.69294 194.89325,212.82642 190.74786,206.37243 C 188.00344,202.09963 185.8996,199.29122 180.72137,192.98814 C 176.0652,187.32051 173.39275,183.91074 171.66825,181.4373 C 170.17819,179.30011 167.85847,175.56685 167.85847,175.306 C 167.85847,175.21603 168.3954,175.14595 169.05164,175.15026 L 170.24482,175.1581 L 172.42366,178.10378 C 176.88181,184.13098 180.85754,188.50398 184.45577,191.33821 C 186.26313,192.76181 186.29523,192.80517 191.82392,201.28847 C 197.45199,209.92428 201.30631,213.3843 207.49257,215.35419 C 210.19151,216.21361 215.55811,216.90425 216.90685,216.56574 L 217.42421,216.43589 L 216.77134,214.82805 C 215.9523,212.81094 212.61484,206.11528 209.45366,200.14717 C 204.59577,190.97583 202.40437,185.82659 201.15239,180.64139 C 200.73733,178.92235 200.19677,175.34992 200.35172,175.34992 C 200.37531,175.34992 200.95412,176.21368 201.63796,177.26938 C 204.10289,181.0747 206.77811,186.00722 211.8514,196.10076 C 219.18084,210.68303 221.5895,214.88473 225.93333,220.66545 C 230.94361,227.33308 234.37288,230.09443 244.17613,235.35513 C 250.201,238.58824 252.49736,239.921 255.06386,241.67415 L 257.29458,243.19793 L 257.29335,242.11212 C 257.29154,240.505 256.767,237.33746 256.15138,235.21609 C 255.14153,231.73624 253.12249,227.75322 250.1028,223.28388 C 248.16532,220.41628 246.23966,217.18316 245.03007,214.76695 C 243.86182,212.43333 243.20458,210.63127 240.80107,203.17163 C 238.66982,196.55702 237.4879,194.17958 230.58376,182.61953 L 226.18008,175.24617 L 227.65853,175.18456 C 228.47168,175.15068 229.20947,175.19737 229.29808,175.28832 C 229.38668,175.37927 230.55103,177.27456 231.88553,179.50009 C 235.20447,185.03509 237.01029,187.70892 239.24311,190.39428 C 242.54488,194.36526 242.94301,195.25526 245.59955,204.60366 C 248.81603,215.92248 250.26451,218.94878 255.73255,225.77446 C 261.72847,233.25908 262.95486,236.28683 262.98848,243.68815 L 263.00623,247.59501 L 264.2487,248.53075 C 267.15595,250.72029 272.33278,252.73622 277.7161,253.77509 C 280.78402,254.36713 280.67203,254.38805 281.03824,253.15487 C 282.38776,248.61052 281.56879,241.38369 279.34181,238.18525 L 278.57481,237.08366 L 278.49693,230.6509 C 278.4541,227.11289 278.52266,220.4363 278.6493,215.81406 C 279.09476,199.55397 278.18544,192.77354 274.61411,185.72535 C 274.0069,184.52698 273.23191,182.84616 272.89191,181.99019 C 272.55191,181.13422 271.75147,179.27397 271.11315,177.8563 C 270.47484,176.43862 269.95259,175.24805 269.95259,175.21056 C 269.95259,175.17308 271.04979,175.14304 272.39081,175.14382 L 274.82904,175.14521 L 277.42289,179.96775 L 280.01675,184.79029 L 280.28324,180.43325 C 280.42981,178.03687 280.595,175.8661 280.65033,175.60931 C 280.74595,175.16555 280.84715,175.14241 282.69301,175.14241 L 284.63509,175.14241 L 284.78589,179.16435 C 284.9863,184.50905 284.85616,184.85993 283.3253,183.10245 C 282.20017,181.81077 281.83752,181.95954 282.52061,183.43255 C 283.19526,184.88735 283.12658,185.52647 282.25195,185.93285 C 281.41469,186.32187 281.40929,186.56192 282.21708,187.48194 C 282.9615,188.32979 283.18388,188.38473 283.40892,187.77638 C 283.54011,187.42173 283.62232,187.56515 283.83656,188.52245 C 284.19157,190.10882 285.89882,193.47184 287.28948,195.32416 C 288.73773,197.2532 291.95001,200.49269 294.33482,202.4292 C 297.56691,205.05371 301.15983,207.52492 301.32206,207.23504 C 301.51527,206.88979 302.40023,202.99833 302.93392,200.14717 C 304.10721,193.87904 304.7431,185.37326 304.51241,179.0332 L 304.37083,175.14241 L 307.10436,175.14241 L 309.83789,175.14241 L 309.70554,178.30692 C 309.63275,180.0474 309.48156,184.45954 309.36956,188.11169 C 309.05824,198.26344 308.63303,202.91272 307.49186,208.64267 C 306.93093,211.4592 306.90529,211.76022 307.21169,211.93169 C 308.37509,212.58276 311.8684,215.45576 313.60769,217.19194 C 318.51368,222.08915 321.26407,226.29171 327.66546,238.67204 C 329.59247,242.39888 331.39437,245.8447 331.66968,246.3294 L 332.17025,247.21067 L 332.33197,246.19358 C 332.61702,244.40085 332.54586,237.61576 332.22881,236.35738 C 331.85229,234.86303 331.30439,233.79669 330.66779,233.31929 C 330.17495,232.94971 330.16338,232.8899 330.39251,231.89595 C 330.54507,231.23419 330.62831,228.67894 330.62234,224.84067 C 330.6145,219.79005 330.52452,218.00588 330.06247,213.73897 C 328.67654,200.94035 328.47386,198.88705 328.25994,195.47824 C 328.1346,193.48097 327.80375,188.60348 327.52472,184.63939 C 327.24569,180.67529 327.01739,176.91679 327.01739,176.28717 L 327.01739,175.14241 L 329.99387,175.14241 L 332.97035,175.14241 L 333.10158,178.61818 C 333.37275,185.80024 335.08653,194.23487 337.58233,200.67078 L 338.40003,202.77937 L 338.0732,204.26464 C 337.62997,206.27884 337.64083,211.05881 338.09589,214.25774 C 338.29071,215.6273 338.7224,218.38197 339.05519,220.37924 C 339.75686,224.5904 340.2003,227.96977 340.41664,230.75466 L 340.56978,232.72599 L 341.25128,231.27343 C 342.06163,229.54623 342.85354,227.12618 343.35627,224.84067 C 343.63576,223.57005 343.7197,222.25566 343.71407,219.23794 C 343.70701,215.45316 343.52942,213.8241 342.66825,209.64413 C 342.53588,209.00163 342.57075,208.95572 343.49048,208.56148 C 345.2077,207.82539 346.98448,206.44719 350.15457,203.39234 C 353.76958,199.90873 355.42398,198.62836 359.34074,196.28298 C 364.43185,193.23438 366.54076,191.49178 367.50176,189.53951 C 368.6456,187.21576 367.88793,183.61999 365.09964,178.13953 L 363.57478,175.14241 L 365.32065,175.14241 C 366.28088,175.14241 367.06858,175.21245 367.07111,175.29805 C 367.07366,175.38364 367.26812,175.68713 367.50325,175.97245 L 367.93076,176.49122 L 367.81509,175.81682 L 367.6994,175.14241 L 370.05807,175.14241 C 372.33207,175.14241 372.4208,175.15918 372.53041,175.60931 C 372.59293,175.8661 372.93273,177.89709 373.28551,180.12262 C 374.2115,185.96426 374.09691,185.70463 374.93001,183.84841 C 375.71056,182.10933 377.051,178.14171 377.46819,176.33559 L 377.74381,175.14241 L 382.38203,175.14241 L 387.02028,175.14241 L 386.88044,175.81682 C 385.41668,182.87564 383.04013,192.89743 379.73294,205.95741 C 378.25899,211.77802 376.02381,220.60231 374.76589,225.56695 C 371.42636,238.74693 368.61282,250.67881 368.92514,250.33673 C 369.57995,249.61951 378.50804,234.14692 381.30479,228.88248 C 384.81173,222.28127 388.1825,214.50341 388.61955,212.00406 C 388.78099,211.08085 388.80896,211.06995 390.30744,211.34598 C 390.97979,211.46984 391.07145,211.42112 391.54183,210.68992 C 391.82128,210.2555 392.79877,208.73283 393.71404,207.30621 C 398.94525,199.15247 403.98907,188.98251 407.76184,178.98132 L 409.17084,175.24617 L 413.13886,175.18976 L 417.10686,175.13334 L 416.96673,175.60478 C 416.60633,176.81729 410.24889,192.58004 408.40738,196.82704 C 404.10681,206.74528 399.99659,215.18293 396.55853,221.15096 C 395.62366,222.77375 394.72251,224.48769 394.55597,224.95969 C 394.36496,225.50108 394.16724,227.47191 394.02035,230.29862 C 393.6586,237.26006 394.18391,247.50485 395.40339,257.27125 C 395.69249,259.58644 396.00487,261.68576 396.09761,261.93644 C 396.29864,262.47992 396.47658,262.21744 401.2014,254.4072 C 404.73013,248.57412 405.94664,246.68434 406.42821,246.28762 C 406.736,246.03407 406.75335,246.06754 406.60521,246.62904 C 406.5149,246.97143 406.45493,247.34494 406.47195,247.45907 C 406.48897,247.5732 406.55695,248.92719 406.62302,250.46794 C 406.97034,258.567 403.40363,265.3132 397.56279,267.60478 L 396.09386,268.18109 L 396.20734,268.92179 C 396.26976,269.32917 396.46285,272.32376 396.63643,275.57646 C 397.52925,292.30697 398.07774,297.93619 399.46686,304.6257 C 400.25394,308.41598 401.81098,313.16182 403.18776,315.96696 C 404.41168,318.4607 404.33381,318.45457 405.75794,316.16893 C 409.28817,310.50306 411.47433,302.84378 413.02042,290.72457 C 414.94064,275.67253 415.51965,266.17062 415.35729,252.37459 C 415.24432,242.77538 414.98608,237.94323 414.12976,229.40585 C 413.76263,225.7456 413.67081,223.50383 413.66656,218.09665 C 413.65979,209.50893 414.04887,205.01559 416.12987,189.6491 C 416.88132,184.10042 417.90606,175.79115 417.90606,175.2468 C 417.90606,175.18939 419.25565,175.14241 420.90516,175.14241 L 423.90425,175.14241 L 423.81621,176.12808 C 423.60642,178.47697 423.54213,180.12262 423.66014,180.12262 C 423.73011,180.12262 423.96383,179.96292 424.17951,179.76773 C 424.51781,179.46158 424.59797,179.45445 424.76332,179.71585 C 424.86873,179.88251 424.95642,180.37993 424.95817,180.82122 C 424.96149,181.66282 424.89946,181.68714 423.84841,181.25623 C 423.49648,181.11195 423.47459,181.17368 423.60463,181.94343 C 423.77574,182.95625 423.56147,183.41937 422.41872,184.50644 C 421.62417,185.26227 421.59933,185.32315 421.90219,185.77229 C 422.51169,186.67621 423.74883,185.85299 424.4339,184.08762 C 424.65394,183.52061 425.0006,182.84008 425.20429,182.57532 C 425.92883,181.63358 425.60979,182.7724 424.01409,186.82374 C 423.15073,189.0158 422.26363,191.46107 422.04276,192.25769 C 421.35885,194.7245 421.58746,197.08462 422.62092,198.22659 C 422.93432,198.5729 422.935,198.63106 422.62909,198.93696 C 422.07955,199.4865 421.689,199.10732 421.23524,197.58368 C 420.75303,195.96453 420.20583,195.1401 419.73363,195.32131 C 419.48887,195.41522 419.3587,196.21793 419.13067,199.03918 C 418.75435,203.69508 418.7414,218.88013 419.11019,223.07685 C 419.96911,232.85159 421.42025,241.35146 423.49461,248.75789 L 424.29319,251.60924 L 423.90919,253.47144 C 423.14953,257.15546 423.18922,261.41386 424.02946,266.37184 C 424.52719,269.30867 426.23418,277.11521 426.42268,277.31656 C 426.67366,277.5847 428.75889,275.32512 430.0392,273.39762 C 431.94484,270.52873 433.5322,267.06004 435.11962,262.29592 C 436.32453,258.67969 437.10871,255.84293 439.58553,246.14023 C 442.10005,236.28981 442.47425,235.07111 444.79467,229.17502 C 448.32041,220.21624 449.16498,217.10309 448.9542,213.84273 C 448.73127,210.39462 447.60234,206.55914 443.94577,196.82704 C 442.65933,193.40315 440.46586,187.42691 439.07138,183.54651 C 437.67688,179.6661 436.40998,176.18539 436.25601,175.81159 L 435.97608,175.13196 L 439.21878,175.18907 L 442.46145,175.24617 L 443.28824,176.59498 C 445.96207,180.95691 447.21646,184.03856 447.54453,187.05134 C 447.84523,189.8129 447.41214,190.5579 445.70453,190.21637 C 445.36634,190.14874 445.08964,190.12139 445.08964,190.15562 C 445.08964,190.43148 446.32762,193.71211 447.52884,196.61953 C 449.24243,200.767 449.5672,201.73077 450.06613,204.14898 L 450.43923,205.95741 L 450.89202,204.91987 C 451.6113,203.27157 452.70041,199.50501 454.01203,194.12943 C 455.4629,188.18324 456.07854,186.19756 456.92727,184.7267 C 457.66554,183.44724 458.13503,183.37508 458.51411,184.48282 C 458.90968,185.63877 458.85328,188.80422 458.42173,189.66759 C 458.06734,190.3766 458.07029,190.41618 458.54878,191.37255 C 459.02987,192.3341 459.03416,192.39548 458.78831,194.79685 C 458.65061,196.14172 458.57345,197.66226 458.61684,198.17584 L 458.69572,199.10963 L 459.23771,197.95918 C 459.92398,196.50252 460.55493,194.38914 460.93862,192.26186 C 461.21066,190.75367 461.23975,192.2352 461.25668,208.45535 L 461.2753,226.30891 L 460.66966,228.06489 C 459.81722,230.53644 459.37157,232.12041 459.59427,231.8872 C 459.69867,231.77789 460.1196,231.28275 460.52968,230.7869 L 461.2753,229.88536 L 461.2753,236.96208 L 461.2753,244.03879 L 460.11916,246.04137 C 458.51073,248.82738 456.93526,252.01203 455.44338,255.49297 C 454.04952,258.74523 451.63122,265.87513 450.90727,268.86692 L 450.44701,270.76899 L 449.83702,270.55635 C 448.30347,270.02175 446.91115,271.60547 445.8252,275.11967 C 445.6927,275.5484 445.94726,275.4617 448.34072,274.26297 C 451.13185,272.86507 460.93035,268.31366 461.1487,268.31366 C 461.21833,268.31366 461.2753,270.21191 461.2753,272.53198 L 461.2753,276.75029 L 458.21455,278.25398 C 453.07176,280.78054 448.78842,283.59093 444.69525,287.12424 C 441.25864,290.09082 440.84491,290.59083 440.43484,292.27314 C 439.58001,295.77991 437.93119,298.92428 433.57569,305.35391 C 430.32448,310.15341 429.03724,312.32669 428.20812,314.41615 C 427.70908,315.67378 427.03103,317.94732 427.12248,318.05628 C 427.14296,318.08067 428.04243,317.7373 429.12128,317.29323 C 434.55374,315.05721 443.35832,313.04172 454.94629,311.38157 C 457.79953,310.9728 460.39079,310.59557 460.70465,310.5433 L 461.2753,310.44824 L 461.2753,314.36909 L 461.2753,318.28992 L 459.80259,318.62488 C 458.99258,318.80912 455.97763,319.32354 453.10268,319.76804 C 447.00669,320.71059 445.7782,320.97253 442.71251,321.98346 C 432.30074,325.41684 424.0565,331.37679 411.51019,344.54037 C 406.80291,349.47924 406.57021,349.76207 405.96146,351.28439 C 405.21991,353.13879 404.78125,354.03649 402.09249,359.20233 C 399.86939,363.47352 398.98625,365.76866 398.47547,368.6026 C 398.16684,370.31507 398.04655,370.60467 397.30693,371.41611 C 396.61393,372.17636 394.16882,376.80607 394.35367,377.00794 C 394.42785,377.08895 396.80137,375.63845 398.79441,374.2941 C 401.56481,372.42543 406.0544,368.95805 411.91095,364.16402 C 415.08014,361.56977 418.96281,358.48222 420.53909,357.30278 C 424.04295,354.68101 431.35069,349.78184 436.78931,346.4085 C 450.47758,337.91822 454.09399,335.63706 457.48827,333.35204 L 461.2753,330.80261 L 461.2753,339.81304 L 461.2753,348.82345 L 458.94083,349.9941 C 455.19746,351.87129 451.66365,354.07992 440.52446,361.50443 C 425.9203,371.23842 420.29786,375.49834 414.79353,380.9998 C 410.27143,385.51956 406.79712,390.20697 404.37834,395.05158 C 403.67972,396.45087 403.14734,397.63495 403.19527,397.68289 C 403.2432,397.73083 404.63515,397.35467 406.28845,396.84703 C 417.0029,393.55707 428.27172,390.94013 449.55107,386.80028 C 455.48581,385.64568 460.55161,384.64981 460.8084,384.5872 L 461.2753,384.47338 L 461.2753,388.51372 L 461.2753,392.55405 L 460.18588,392.6786 C 459.5867,392.7471 457.83585,392.9048 456.29509,393.02904 C 454.75435,393.15327 452.27981,393.4459 450.79613,393.67931 C 448.32026,394.06878 446.08263,394.60811 433.36542,397.88062 C 430.96871,398.49738 426.25308,399.57643 422.88626,400.27851 C 411.27091,402.70065 406.76611,403.98079 402.4383,406.08922 C 395.07194,409.678 391.51041,414.68749 390.73288,422.55356 C 390.61775,423.71828 390.3787,428.8266 390.20165,433.90536 C 390.02463,438.98413 389.63972,446.50112 389.34633,450.60979 C 388.90334,456.81336 388.78421,460.38484 388.64376,471.67189 C 388.55074,479.14738 388.46682,485.52048 388.45726,485.83433 L 388.43987,486.40498 L 373.1265,486.40498 L 357.81312,486.40498 L 357.57773,484.79679 z M 358.16174,419.69104 C 358.70186,418.53504 358.66987,417.80213 358.06187,417.40376 C 357.52274,417.05052 356.58316,417.16087 356.41577,417.59709 C 356.36196,417.73733 356.49528,418.35562 356.71203,418.97109 C 356.92877,419.58656 357.10907,420.37385 357.1127,420.72061 C 357.11909,421.33212 357.12916,421.3386 357.4466,420.93609 C 357.62664,420.70783 357.94844,420.14756 358.16174,419.69104 z M 358.97368,412.63576 L 358.97368,410.87194 L 358.40303,410.87271 C 358.08917,410.87314 357.52664,411.0599 357.15296,411.28772 C 356.77928,411.51556 356.28904,411.70197 356.06354,411.70197 C 355.5336,411.70197 355.50966,412.51584 356.021,413.14733 C 356.32251,413.51966 358.22544,414.367 358.81805,414.39281 C 358.90365,414.39653 358.97368,413.60586 358.97368,412.63576 z M 356.83051,406.06876 C 356.92576,405.14635 356.4145,403.82821 355.89423,403.65479 C 355.6623,403.57748 355.53842,404.70645 355.58357,406.48587 C 355.62167,407.98691 356.66861,407.6367 356.83051,406.06876 z M 340.20538,383.74021 C 339.81482,382.70462 337.57662,379.49611 334.83724,376.04485 C 333.14635,373.91457 331.68844,372.09572 331.59743,372.00294 C 331.33371,371.73409 328.93141,372.43806 327.08308,373.32583 C 325.54538,374.06439 321.41466,376.92249 321.41466,377.24788 C 321.41466,377.53943 330.99235,382.06691 333.04651,382.74638 C 335.36913,383.51465 337.94482,384.05397 339.43822,384.08474 C 340.21688,384.10076 340.32333,384.05297 340.20538,383.74021 z M 244.10742,383.04249 C 244.22791,382.92991 244.174,382.85831 243.96876,382.85831 C 243.47042,382.85831 242.9765,383.08291 242.9765,383.30951 C 242.9765,383.5287 243.79349,383.3358 244.10742,383.04249 z M 347.68337,380.26669 C 348.24362,380.09674 349.13502,379.95668 349.66425,379.95543 L 350.62649,379.95319 L 350.77185,374.7136 C 350.91311,369.62201 350.78922,367.55022 350.26032,366.15911 C 350.10211,365.74299 349.91825,365.63509 349.36734,365.63509 C 347.82155,365.63509 346.14231,366.334 341.2768,369.00237 L 338.62426,370.45708 L 339.62431,371.52185 C 340.99724,372.98367 341.47131,373.64168 343.3068,376.63305 C 345.94176,380.92738 345.825,380.83045 347.68337,380.26669 z M 361.65898,377.63754 C 361.96541,376.20878 361.93304,374.38914 361.58036,373.2173 C 361.28312,372.22965 360.55531,371.23657 360.13068,371.23923 C 359.81741,371.2412 359.7227,377.31515 360.02182,378.22149 C 360.30883,379.09112 360.84628,379.44301 361.19209,378.98774 C 361.32801,378.80882 361.53811,378.20123 361.65898,377.63754 z M 383.87588,369.7516 C 384.82951,367.96242 384.94256,366.27776 384.24382,364.26856 L 383.73424,362.80322 L 388.27426,353.4806 C 390.77127,348.35317 394.29818,341.16985 396.11182,337.5177 C 397.92547,333.86556 399.70546,330.03703 400.06733,329.00986 C 400.99848,326.36689 401.09607,324.28158 400.41213,321.64331 C 399.92967,319.78228 399.45954,318.6238 396.33023,311.5847 C 394.04488,306.44405 393.51704,304.41846 392.90383,298.43606 C 392.45472,294.05452 392.17929,288.01903 392.17701,282.5094 C 392.17591,279.87416 392.11339,276.0166 392.03806,273.93704 L 391.90111,270.15599 L 391.0524,270.2973 C 389.06364,270.62846 384.16173,271.93898 380.877,273.01769 C 377.68525,274.06588 373.71588,275.49819 373.55392,275.66014 C 373.51929,275.69478 373.21724,277.30092 372.88272,279.22931 C 372.54819,281.15773 371.76294,285.39679 371.13769,288.64949 C 369.22866,298.58106 369.25541,298.38532 369.7213,299.01013 C 369.9401,299.30359 370.73413,299.91312 371.48579,300.36466 C 373.17098,301.37701 373.46092,301.83104 372.99612,302.72986 C 372.81158,303.08672 372.42632,303.53219 372.13996,303.7198 C 371.64103,304.04673 371.56329,304.03249 370.27436,303.37826 C 369.53463,303.0028 368.89945,302.73343 368.86286,302.77971 C 368.71757,302.96343 367.87191,308.16903 367.68619,310.02285 C 367.0969,315.90544 367.74713,322.51877 369.65503,330.0474 C 370.70348,334.18458 371.85244,337.75493 375.09662,346.95705 C 376.40386,350.665 377.98806,355.47401 378.61708,357.64373 C 379.68198,361.31701 379.77199,361.79973 379.92408,364.65324 C 380.06499,367.29736 380.15659,367.85227 380.59169,368.69777 C 381.0336,369.55646 382.57545,371.03033 383.03187,371.03033 C 383.12122,371.03033 383.50104,370.45491 383.87588,369.7516 z M 337.23239,363.01075 C 338.64254,362.59548 340.64447,361.59117 342.84518,360.19492 C 343.80818,359.58396 345.01598,358.86133 345.52917,358.58908 L 346.46224,358.09409 L 343.7638,355.48372 C 342.27966,354.04801 339.14849,350.63223 336.80563,347.89312 C 330.12126,340.07821 326.47027,336.6752 322.50139,334.5605 C 320.70491,333.60329 317.09624,332.34512 315.51507,332.12471 C 314.52364,331.98649 314.50113,331.99479 314.78879,332.39229 C 314.95207,332.61789 315.96806,334.00349 317.04656,335.47136 C 321.78818,341.92496 326.40894,349.60542 331.99343,360.31559 L 333.71,363.60769 L 334.92409,363.47034 C 335.59184,363.39479 336.63057,363.18799 337.23239,363.01075 z M 346.13152,339.27601 C 345.27024,335.87009 343.40578,333.03463 340.51574,330.73552 C 338.26256,328.94307 336.15275,327.78451 330.74872,325.37216 C 328.21238,324.23995 325.25045,322.83979 324.16663,322.26067 C 323.08281,321.68158 322.15168,321.25216 322.09742,321.3064 C 321.8989,321.50493 322.71969,323.86509 323.53139,325.4297 C 324.44688,327.19439 326.39522,329.44119 328.23908,330.85855 C 329.99682,332.2097 331.7583,333.23596 336.94993,335.93361 C 341.63726,338.3692 343.98632,339.80374 345.58939,341.20963 C 346.41797,341.9363 346.41954,341.9367 346.48536,341.43677 C 346.52162,341.16132 346.36239,340.18898 346.13152,339.27601 z M 340.3513,336.16087 C 339.7354,335.84687 338.9426,335.04808 337.71259,333.50223 C 335.9053,331.23089 335.18684,330.60392 333.75639,330.04981 L 332.93138,329.73023 L 334.17643,329.81626 C 336.72813,329.99258 339.61368,331.60386 342.36523,334.38885 C 344.11169,336.15651 344.11042,336.34034 342.35069,336.50502 C 341.46898,336.58753 341.04503,336.51455 340.3513,336.16087 z M 342.65691,324.91157 C 342.9708,323.18458 343.19979,320.2803 343.20134,318.00648 C 343.20715,309.49715 340.60173,302.38799 335.0661,295.80852 C 332.19392,292.39476 323.72374,284.49932 322.93366,284.49932 C 322.23567,284.49932 321.38992,285.18449 320.90385,286.1437 C 320.34492,287.24669 319.42852,288.10606 319.0558,287.87672 C 318.92656,287.79719 317.81271,286.99987 316.58059,286.10489 C 309.57579,281.01685 304.74258,278.5 299.46703,277.19315 C 298.03434,276.83828 297.00329,276.74151 294.54233,276.73103 C 292.83039,276.72373 291.18293,276.78706 290.8813,276.87177 L 290.3329,277.02576 L 290.63403,278.11682 C 292.91229,286.37152 294.88141,291.58123 297.31048,295.78068 C 300.27526,300.9063 303.74262,304.52873 307.75563,306.69294 C 309.32245,307.53791 312.06504,308.65122 312.21367,308.5026 C 312.31701,308.39924 311.69352,305.57156 310.62717,301.30749 C 309.11796,295.27257 308.77693,292.57162 309.17239,289.78572 C 309.31245,288.79908 309.49974,288.06977 309.58861,288.16503 C 309.91734,288.51743 311.47393,293.09176 313.51622,299.70704 C 315.68485,306.73158 316.732,309.82127 317.86015,312.52417 L 318.51442,314.09169 L 320.7427,314.99392 C 329.93486,318.71577 336.56395,321.8956 340.71294,324.57321 C 341.56892,325.12562 342.3289,325.57948 342.40179,325.58178 C 342.47469,325.58411 342.58949,325.28249 342.65691,324.91157 z M 316.90136,325.24529 C 317.57135,325.13454 317.6789,325.04112 317.67514,324.57317 C 317.66727,323.59599 316.66736,321.15824 315.68421,319.71936 C 314.29527,317.68657 312.72878,316.36654 307.87474,313.13854 C 305.50655,311.56366 303.56894,310.30472 303.56894,310.3409 C 303.56894,310.60651 305.64299,316.28591 306.25938,317.70815 C 308.78578,323.53758 312.27634,326.00975 316.90136,325.24529 z M 301.08745,317.20822 C 300.3654,312.11725 298.50233,308.32927 294.86276,304.55226 C 291.39654,300.95517 288.44728,299.04644 278.46043,293.9369 C 274.63709,291.98076 270.63533,289.83907 269.56764,289.17757 C 267.37732,287.82055 264.27807,285.53949 264.42499,285.39258 C 264.4783,285.33927 266.26891,286.01884 268.40412,286.90276 C 271.63903,288.24192 272.35079,288.46961 272.67295,288.26842 C 272.8856,288.13563 273.39911,288.02696 273.81409,288.02696 C 274.44779,288.02696 274.52882,288.07489 274.32022,288.32623 C 274.18362,288.49082 273.79564,288.65424 273.45805,288.68937 C 272.96975,288.74019 273.57753,289.06977 276.43049,290.30123 C 278.40293,291.15262 281.83763,292.65944 284.06316,293.64973 C 286.28869,294.64004 288.13943,295.42322 288.17592,295.39012 C 288.29724,295.28014 287.41117,293.69465 286.86689,293.04783 C 286.57196,292.69733 285.22805,291.66323 283.88043,290.74986 C 280.71634,288.60535 279.2008,286.96753 280.7949,287.41537 C 281.21863,287.53442 281.97698,288.14607 282.83514,289.06095 C 284.26461,290.58489 285.06005,290.98294 284.68037,289.98432 C 284.29149,288.96149 284.06176,288.68412 282.71763,287.61456 C 281.50904,286.65286 280.88885,285.7369 281.22124,285.40451 C 281.70113,284.92461 284.04124,286.99909 287.23863,290.73886 C 288.66022,292.40161 290.23146,294.1139 290.73027,294.54401 C 291.62823,295.31824 292.98032,296.11979 293.38839,296.11979 C 293.50465,296.11979 292.79438,294.8982 291.81001,293.40514 C 288.42062,288.26424 286.56031,283.88152 285.81259,279.27575 C 285.5028,277.36748 285.39278,277.04367 285.01749,276.93553 C 284.77793,276.86652 282.71435,276.75349 280.43176,276.68439 C 274.44291,276.50308 268.86779,277.0407 261.5485,278.50531 C 258.67754,279.0798 244.61295,282.37868 244.48374,282.5079 C 244.42574,282.5659 246.96276,284.90485 249.92803,287.52718 C 255.76281,292.68714 264.56596,299.48474 270.88638,303.71078 C 280.78584,310.32988 288.29724,314.3803 297.65496,318.14533 C 300.57834,319.32155 301.19494,319.50729 301.25461,319.22964 C 301.29422,319.04537 301.21899,318.13574 301.08745,317.20822 z M 278.01626,285.79624 C 277.39195,285.11352 275.97033,283.14767 275.97033,282.96709 C 275.97033,282.89679 276.15049,282.83925 276.37068,282.83925 C 276.61447,282.83925 277.12488,283.30482 277.67589,284.02975 C 278.17356,284.68452 278.87676,285.41972 279.23856,285.66354 C 279.96541,286.15337 279.91945,286.36689 279.0872,286.36689 C 278.753,286.36689 278.33384,286.14355 278.01626,285.79624 z M 279.60971,283.55756 C 279.29694,283.1475 279.08415,282.7689 279.13682,282.71622 C 279.1895,282.66355 279.48849,282.95595 279.80126,283.36601 C 280.11402,283.77607 280.32682,284.15467 280.27415,284.20733 C 280.22147,284.26002 279.92247,283.96762 279.60971,283.55756 z M 205.00247,299.43598 C 211.69631,298.18636 216.05984,296.83054 217.94024,295.41602 C 218.87439,294.71332 219.82707,293.07207 219.61763,292.52628 C 219.50338,292.22852 219.40689,292.24843 218.82953,292.6888 C 217.22058,293.91601 214.13891,295.19056 208.01134,297.1631 C 204.442,298.31211 202.42292,299.11166 201.26732,299.83369 C 200.65126,300.2186 200.61977,300.27136 201.05981,300.18131 C 201.34513,300.12293 203.11933,299.78754 205.00247,299.43598 z M 422.05622,287.28844 C 422.05622,286.84893 421.97221,286.60183 421.84872,286.67815 C 421.50469,286.89079 421.62123,288.02696 421.98706,288.02696 C 422.0251,288.02696 422.05622,287.69463 422.05622,287.28844 z M 243.19822,287.06964 L 244.3253,286.73483 L 243.43575,285.94523 C 241.84525,284.5335 239.76209,284.14545 237.79207,284.894 C 236.30934,285.4574 234.80932,286.37554 235.02282,286.58905 C 235.33169,286.89793 238.42987,287.36631 240.29311,287.38582 C 241.37815,287.39719 242.51042,287.27395 243.19822,287.06964 z M 339.6754,282.94149 C 339.6754,282.49446 338.54911,277.48786 337.58734,273.65966 C 334.46725,261.24045 330.30149,251.72505 325.77966,246.68861 C 325.0204,245.84293 324.57637,245.09941 324.23062,244.09476 C 321.52206,236.22435 317.39882,229.72958 311.58974,224.18331 C 309.176,221.87877 305.08029,218.65835 304.79073,218.83731 C 304.6894,218.89993 304.60649,219.21959 304.60649,219.54764 C 304.60649,220.49038 303.62011,225.60186 302.82424,228.78333 C 301.81466,232.8191 301.26637,234.58408 297.86066,244.76146 C 294.87777,253.67534 293.06463,259.79316 293.25708,260.29469 C 293.31317,260.44084 293.90543,260.6803 294.57322,260.8268 C 296.36243,261.21935 299.97664,262.41024 302.24955,263.35621 C 306.62559,265.17747 310.64636,267.37629 318.71705,272.36174 C 329.58445,279.07478 337.36035,283.18313 339.31226,283.24312 C 339.51199,283.24924 339.6754,283.11351 339.6754,282.94149 z M 315.24129,248.60597 C 314.75564,248.38551 314.35938,248.06124 314.35938,247.88424 C 314.35938,247.45862 314.61924,247.47887 315.54847,247.97691 C 315.97338,248.20465 316.48662,248.33843 316.68901,248.27419 C 317.15676,248.12573 317.19455,248.7107 316.72876,248.88945 C 316.27364,249.06409 316.23383,249.05649 315.24129,248.60597 z M 315.81194,238.24746 C 315.81194,238.04191 316.84056,237.73186 316.9985,237.88979 C 317.05353,237.94482 317.037,238.08943 316.96177,238.21115 C 316.79674,238.47817 315.81194,238.50926 315.81194,238.24746 z M 351.07474,278.53345 C 352.09712,277.34611 353.55511,274.42875 354.26915,272.14172 C 355.05517,269.62408 355.76224,266.0408 356.58289,260.4161 C 357.86994,251.59472 358.51442,248.57086 359.78244,245.40416 L 360.40354,243.85299 L 358.7533,235.59189 C 356.58696,224.74713 355.63626,219.08319 355.66218,217.17605 L 355.67081,216.54033 L 356.41637,217.37037 C 358.12715,219.275 360.2948,223.04942 361.32485,225.91722 C 361.84908,227.37672 362.43035,230.0942 362.54666,231.62926 C 362.64324,232.90381 367.87643,215.09413 369.63278,207.51372 C 371.5622,199.18623 372.0354,193.12412 370.96144,190.49214 L 370.68993,189.82673 L 369.31341,191.89418 C 367.26374,194.97265 364.9163,197.78628 362.16123,200.46669 C 358.54725,203.98278 354.84349,206.72866 349.59992,209.77944 C 347.47112,211.018 347.37972,211.10034 347.24437,211.90149 C 347.16692,212.35992 346.84859,213.03093 346.53696,213.39261 C 345.97581,214.04393 345.97194,214.06908 346.13356,216.01576 C 346.45658,219.90638 347.34394,223.03126 348.71402,225.10297 L 349.43641,226.19531 L 349.02349,226.76304 C 348.50872,227.47083 347.97552,229.4992 347.9764,230.74638 C 347.97676,231.26452 348.2102,233.49539 348.49517,235.70387 C 348.78013,237.91235 349.01166,240.43358 349.00967,241.3066 C 349.00344,244.05266 348.12918,247.06649 346.95407,248.39286 L 346.49447,248.91163 L 346.6594,245.17648 C 346.88123,240.15265 346.8456,239.00076 346.43516,237.92603 C 346.09521,237.03589 345.58125,236.40011 345.37132,236.61004 C 345.20053,236.78083 344.07842,245.76967 343.82562,248.99219 C 343.5789,252.13706 343.65482,254.22285 344.15881,258.14575 C 344.56203,261.2843 344.55216,261.25838 345.34399,261.2584 C 345.8503,261.2584 346.15996,261.07683 346.67102,260.48025 L 347.33763,259.70207 L 347.34542,262.09669 C 347.35334,264.53033 347.71009,266.5266 348.29755,267.42447 C 348.74658,268.11074 348.67796,268.14104 347.75926,267.66219 C 347.29782,267.42167 346.88283,267.26232 346.83707,267.30808 C 346.79132,267.35383 346.94229,268.08906 347.17258,268.9419 C 347.60499,270.54334 347.78646,274.18459 347.47996,275.10956 C 347.24506,275.81843 347.91827,275.71358 348.74469,274.91257 L 349.42964,274.24869 L 349.29692,276.11851 C 349.18735,277.66214 349.22756,278.12186 349.5274,278.75374 C 349.72716,279.17469 349.96607,279.51912 350.05832,279.51912 C 350.15056,279.51912 350.60796,279.07557 351.07474,278.53345 z M 355.03102,215.5028 C 355.30865,215.16827 356.27607,215.0704 356.27607,215.37684 C 356.27607,215.60554 355.76104,215.81406 355.19615,215.81406 C 354.84327,215.81406 354.81575,215.76218 355.03102,215.5028 z M 361.87879,203.19218 C 361.87879,202.96981 362.58017,202.74806 363.29676,202.74386 C 363.59211,202.74213 363.74768,202.8422 363.69566,203.00041 C 363.59653,203.30187 361.87879,203.48317 361.87879,203.19218 z M 383.19727,266.54399 C 385.46372,266.08508 391.03277,264.4141 391.70858,263.99018 C 391.91493,263.86074 391.89739,263.35986 391.62346,261.55713 C 391.05487,257.81549 391.14812,249.37035 391.84558,241.44134 C 392.42278,234.87955 392.58991,229.68611 392.2896,227.64267 L 392.12198,226.50202 L 391.64892,227.57392 C 391.38875,228.16347 390.77776,229.23205 390.2912,229.94855 C 389.2892,231.42407 388.64738,232.95497 388.64738,233.86951 C 388.64738,234.60042 388.90896,234.64507 389.84557,234.07402 C 390.66512,233.57434 391.05101,233.55017 391.21903,233.98801 C 391.40396,234.46995 391.38972,234.48981 390.85935,234.48981 C 389.87284,234.48981 387.88323,235.71831 386.50695,237.17723 C 383.92677,239.91236 382.56904,243.96722 383.65757,245.68701 C 384.00757,246.24 384.62045,245.37365 385.11973,243.62017 C 385.52273,242.20486 386.18427,241.07702 386.44773,241.35615 C 386.57761,241.49376 385.37686,245.36442 384.56471,247.42616 C 384.15295,248.47144 382.93262,251.24091 381.85285,253.58057 C 379.46418,258.75635 378.21004,261.93791 377.53632,264.53093 C 376.76165,267.51243 376.68867,267.36336 378.84196,267.19785 C 379.84024,267.12111 381.80014,266.82687 383.19727,266.54399 z M 386.91815,240.36921 C 386.62925,240.08033 386.81039,239.53176 387.61181,238.2685 C 388.06724,237.5506 388.43987,236.8736 388.43987,236.76406 C 388.43987,236.46533 388.85233,236.52431 388.97362,236.84037 C 389.11398,237.20615 388.77063,238.08826 387.97028,239.41813 C 387.31555,240.50604 387.17867,240.62976 386.91815,240.36921 z M 378.74495,256.13 C 378.57776,255.69427 378.3036,255.82257 377.953,256.5006 C 377.68709,257.01477 377.67344,257.19837 377.88234,257.45008 C 378.10495,257.71833 378.19086,257.66631 378.49432,257.07947 C 378.68849,256.70401 378.80127,256.27675 378.74495,256.13 z M 289.61797,253.21743 C 291.30771,248.39512 292.65861,243.82359 294.20157,237.70619 C 295.43551,232.81395 299.26424,215.99062 299.16046,215.91694 C 299.13134,215.89627 298.31844,215.60855 297.35402,215.27755 C 293.49575,213.95339 290.82032,211.99377 285.78914,206.80683 C 283.78616,204.74183 282.2073,203.22962 282.28057,203.44635 C 283.18516,206.122 283.37925,213.59688 282.72564,220.58675 C 282.26232,225.54162 282.206,230.15009 282.58553,232.05159 C 282.78539,233.05291 283.13944,233.88095 283.82727,234.95574 L 284.78944,236.45919 L 284.78779,239.7803 C 284.78689,241.60691 284.70545,244.68884 284.60682,246.62904 C 284.41422,250.418 284.52782,251.55147 285.30955,253.6405 C 285.75652,254.83492 287.50735,256.9007 288.07271,256.9007 C 288.21585,256.9007 288.89248,255.28791 289.61797,253.21743 z M 380.4798,253.31417 C 381.56231,251.42726 381.66897,251.06405 381.2884,250.56083 C 381.1203,250.33854 380.9798,250.27089 380.97616,250.41048 C 380.97253,250.55008 380.53824,251.3632 380.01109,252.21743 C 379.27497,253.41021 379.08332,253.89295 379.18499,254.29809 C 379.25783,254.58823 379.38565,254.82247 379.46909,254.81861 C 379.55251,254.81472 380.00733,254.13773 380.4798,253.31417 z M 254.89126,249.30447 C 255.40261,249.10825 255.27755,248.76237 254.7526,248.92099 C 254.12672,249.11007 253.79636,249.4304 254.22723,249.4304 C 254.41192,249.4304 254.71073,249.37373 254.89126,249.30447 z M 382.95353,247.00365 C 382.81597,246.64653 382.7996,246.64618 382.60303,246.99637 C 382.48961,247.1984 382.463,247.57192 382.54389,247.8264 L 382.69095,248.28911 L 382.89439,247.83369 C 383.0063,247.58318 383.0329,247.20967 382.95353,247.00365 z M 252.9369,247.4422 C 252.9369,247.40028 252.66594,247.22585 252.33475,247.0546 C 252.00357,246.88334 250.95305,246.14911 250.00028,245.423 C 247.83185,243.77041 247.12667,243.37051 247.12667,243.79342 C 247.12667,244.11912 250.46384,246.83572 251.41753,247.28636 C 252.21918,247.66517 252.9369,247.73877 252.9369,247.4422 z M 448.44586,238.84748 C 450.21091,232.22861 450.46168,229.7844 449.64649,227.14512 C 449.41364,226.39126 449.14712,225.77446 449.05419,225.77446 C 448.77489,225.77446 448.01937,228.61499 447.37547,232.08601 C 446.66968,235.89077 446.28545,237.30389 445.57633,238.7033 C 445.12295,239.59801 445.09765,239.75871 445.36258,240.06096 C 445.52786,240.24952 445.72692,240.61335 445.80497,240.86946 C 446.02073,241.57753 446.53639,241.98962 447.11893,241.9195 C 447.60938,241.86046 447.69566,241.66072 448.44586,238.84748 z M 281.86703,216.79688 C 281.85752,216.59872 281.83274,215.99303 281.81197,215.45092 C 281.76468,214.21653 281.50246,213.71962 281.11481,214.12979 C 280.90243,214.35449 280.90064,214.43312 281.10616,214.50848 C 281.49834,214.65228 281.41687,215.19108 281.00241,215.19471 C 280.14557,215.20221 280.06026,215.5153 280.67293,216.404 C 281.2639,217.26123 281.89935,217.4703 281.86703,216.79688 z M 284.06316,178.99636 C 284.06316,178.67512 283.81883,178.30059 283.38876,177.96254 C 282.73113,177.44564 282.70968,177.44273 282.52622,177.84552 C 282.26708,178.41448 282.67536,179.23785 283.27328,179.35211 C 283.53652,179.40242 283.82193,179.45629 283.90753,179.47183 C 283.99313,179.48738 284.06316,179.27341 284.06316,178.99636 z M 314.47351,401.75626 C 314.58193,401.6502 314.95078,401.49463 315.29317,401.41057 C 315.85704,401.27212 315.88886,401.29028 315.6309,401.60339 C 315.47426,401.79353 315.10542,401.94908 314.81124,401.94908 C 314.47873,401.94908 314.35096,401.87611 314.47351,401.75626 z M 253.97444,340.65253 C 253.97444,339.98249 254.74907,339.4887 255.79014,339.49513 L 256.77581,339.50122 L 256.09813,340.11766 C 255.72541,340.45669 255.24281,340.73409 255.02568,340.73409 C 254.80856,340.73409 254.48321,340.79078 254.30268,340.86004 C 254.08729,340.94269 253.97444,340.87137 253.97444,340.65253 z M 239.85769,335.18324 C 238.24572,334.08253 238.15566,333.98484 238.6953,333.92254 C 239.11222,333.8744 239.80572,334.17203 241.10947,334.95861 C 242.11554,335.56559 242.89499,336.13292 242.84159,336.21933 C 242.56495,336.66694 241.47757,336.28938 239.85769,335.18324 z M 231.8748,190.7277 C 230.65981,190.42012 229.28095,189.45799 229.28095,188.9178 C 229.28095,188.54277 229.02246,188.42667 227.71295,188.21354 C 225.14825,187.79613 223.18426,186.37532 222.04079,184.11012 C 221.11635,182.27881 220.76446,180.70313 220.62895,177.78815 C 220.50819,175.19042 220.51396,175.14241 220.94684,175.14241 C 221.2582,175.14241 221.42561,175.31006 221.51669,175.71306 C 222.37428,179.50761 223.90694,182.62842 226.15041,185.14822 C 227.36586,186.51336 230.06254,188.49794 232.05958,189.49695 C 232.98512,189.95995 233.78128,190.3746 233.82884,190.4184 C 234.15092,190.71504 232.71967,190.94159 231.8748,190.7277 z M 461.10954,187.03203 C 461.04239,186.29697 460.62104,185.46354 459.95038,184.73927 C 459.25456,183.98784 459.41173,183.4964 460.27444,183.72587 C 461.23753,183.98204 461.29781,184.11687 461.22263,185.84712 C 461.18341,186.75024 461.13251,187.28346 461.10954,187.03203 z M 342.85188,184.6878 C 343.06057,183.80217 343.80198,178.44226 343.9498,176.75061 C 344.08948,175.15203 344.09387,175.14241 344.68422,175.14241 C 345.01087,175.14241 345.27813,175.19069 345.27813,175.24969 C 345.27813,175.97018 343.07268,184.88814 342.84141,185.10282 C 342.77994,185.15988 342.78465,184.97313 342.85188,184.6878 z M 459.55186,182.8952 C 459.33559,182.67893 459.3784,181.61779 459.60915,181.47518 C 459.88846,181.30255 460.10937,182.30066 459.88184,182.70724 C 459.77962,182.88989 459.63112,182.97447 459.55186,182.8952 z M 458.21455,179.57017 C 457.80327,179.40422 457.912,178.2982 458.38622,177.82398 C 458.6233,177.58689 458.95012,177.4439 459.1125,177.5062 C 459.51461,177.66051 459.49307,178.97009 459.08164,179.38152 C 458.74137,179.72179 458.64322,179.74314 458.21455,179.57017 z M 428.48898,178.48504 C 428.48898,178.2795 429.5176,177.96944 429.67554,178.12738 C 429.73057,178.18241 429.71405,178.32702 429.63881,178.44875 C 429.47378,178.71576 428.48898,178.74685 428.48898,178.48504 z"
       id="tree"
       inkscape:label="#treepath" />
  </g>
  <g
     inkscape:groupmode="layer"
     id="layer3"
     inkscape:label="Foredrop">
    <rect
       style="opacity:0.73684207999999984;fill:none;fill-opacity:1;stroke:#000000;stroke-width:7;stroke-miterlimit:4;stroke-dasharray:none;stroke-opacity:1;stroke-linejoin:round"
       id="rect4974"
       width="311.39011"
       height="311.39011"
       x="150.01276"
       y="175.01488" />
  </g>
</svg>
